v -0.003607963211834433 0.06263557821512222 0.04299998283386232
v 0.003607970895245671 0.06201404333114624 0.04299997910857202
v -0.002593549434095621 0.05988073721528053 0.042999953031539924
v -0.001793829025700689 0.0654706284403801 0.04299997910857202
v 0.0019847468938678503 0.0654410868883133 0.04299997538328172
v 0.0010447482345625763 0.05868947505950928 0.04299998655915261
v -0.011556625366210938 0.047324951738119125 0.03574001789093018
v -0.019777297973632813 0.04732495173811912 0.03193366527557373
v -0.026843070983886722 0.04732494801282883 0.026274085044860843
v -0.03234946727752686 0.04732494801282883 0.019089460372924808
v -0.03597944974899293 0.04732498154044151 0.010787963867187502
v -0.03751570358872414 0.04732495918869972 0.0018634349107742284
v -0.03687149286270142 0.04732494801282883 -0.007168769836425788
v -0.03408551216125488 0.047324955463409424 -0.015781521797180183
v -0.029319524765014652 0.047324951738119125 -0.02347922325134278
v -0.022844314575195316 0.0473250113427639 -0.029816508293151876
v -0.015047311782836916 0.047324951738119125 -0.03441590070724489
v -0.006377339363098143 0.047324951738119125 -0.03701660037040712
v 0.005108684301376345 0.04732494428753853 -0.0373261831700802
v 0.015781521797180183 0.04732494801282883 -0.03408557176589967
v 0.025405526161193855 0.04732502996921539 -0.02781862020492555
v 0.033619523048400886 0.04732494801282883 -0.017001748085021983
v 0.03701661527156831 0.04732496291399002 -0.006377279758453374
v 0.03746717423200608 0.04732494801282883 0.002666622400283811
v 0.03574001789093019 0.04732494801282883 0.011556267738342285
v 0.030676960945129395 0.0473249778151512 0.02186918258666993
v 0.022844552993774418 0.04732513055205345 0.02981638908386231
v 0.01504778861999512 0.047324955463409424 0.03441578149795533
v 0.005862653255462649 0.04732474312186241 0.03712062537670137
v -0.002570390701293944 0.04732648655772209 0.03742660954594613
v 0.01977777481079102 0.074824757874012 0.03193354606628419
v 0.011556506156921385 0.0748247355222702 0.03574001789093019
v 0.002565324306488036 0.07482355087995529 0.03742798790335656
v -0.007614761590957645 0.07482583820819855 0.036961648613214514
v -0.020928502082824714 0.07482489943504333 0.03132629394531251
v -0.02932000160217287 0.07482463121414185 0.023478269577026374
v 0.034085750579833984 0.07482490688562393 -0.01578092575073243
v 0.03687167167663575 0.07482485473155975 -0.0071681737899780325
v 0.03751571848988534 0.07482481747865677 0.001863524317741394
v 0.03597944974899292 0.07482478767633438 0.010787963867187502
v 0.03234946727752686 0.07482485473155975 0.019089221954345714
v 0.026843428611755378 0.07482469081878662 0.026273965835571296
v -0.03408551216125489 0.07482489943504333 0.01578140258789063
v -0.036871567368507385 0.07482485473155975 0.007168650627136233
v -0.03746411949396134 0.07482481747865677 -0.003972291946411134
v -0.03361964225769044 0.0748247280716896 -0.01700139045715333
v -0.02684307098388673 0.07482490688562393 -0.02627432346343995
v -0.018014788627624515 0.07482480257749557 -0.03308784961700441
v -0.007168054580688478 0.07482485473155975 -0.036871626973152175
v 0.0018640458583831785 0.07482481747865677 -0.03751566633582115
v 0.010788440704345705 0.07482480257749557 -0.0359792709350586
v 0.019088983535766605 0.07482471317052841 -0.03234970569610597
v 0.027818202972412113 0.07482480257749557 -0.025406241416931163
v 0.03045319020748139 0.08182484656572342 -0.008700132369995119
v 0.026037573814392093 0.08182483166456223 -0.017836451530456546
v 0.02053320407867432 0.081824891269207 -0.023968100547790538
v 0.011637270450592043 0.08182492107152939 -0.0294560194015503
v -0.0005211345851421374 0.081824891269207 -0.03166723623871803
v -0.029456138610839854 0.08182492107152939 -0.011636972427368164
v -0.014606386423110965 0.08182492107152939 -0.028277754783630378
v -0.02396810054779053 0.0818248838186264 -0.020533323287963874
v -0.005798041820526127 0.08182483911514282 0.031023874878883372
v -0.030453577637672435 0.0818248838186264 0.008698523044586185
v -0.01363015174865723 0.0818248838186264 0.028466224670410167
v -0.031515359878540046 0.081824891269207 -0.0016975998878478987
v -0.02603793144226075 0.08182505518198013 0.017835855484008796
v -0.02053296566009522 0.08182482421398163 0.023968338966369636
v 0.012772202491760254 0.08182500302791595 -0.009318560361862188
v 0.026444673538208004 0.08182492107152939 0.017227172851562507
v 0.006790041923522948 0.08182482421398163 0.031094703823328032
v 0.03132623806595803 0.08182484656572342 0.005626097321510316
v 0.019690513610839844 0.08182492107152939 0.02480638027191163
vn -0.000008513489144920672 -0.000003180892378828856 -0.0003158641700687914
vn -0.0003063745593868684 0.000004032667790254725 0.00001629509755773936
vn 0.00019094347310755222 0.00000430584854882459 -0.00024005133384541466
vn 0.00004225067586886825 0.0000032940249932168426 -0.0002454196782225582
vn 0.00010028402454853594 0.00009195682452756151 -0.00000611136040373772
vn -0.0002483844158132077 -0.0000032935197299410733 -0.000017715704250992337
vn -0.0002454234954897828 -0.0000024015456656644717 0.000042246805722359615
vn -0.00023684974854321084 0.000002400018722426044 0.00007661620478366363
vn -0.00005387981873461459 0.000052150641408843546 0.000033361474656601256
vn -0.00006396239812955787 0.00006446168324814039 0.00003090883203082931
vn -0.0000602894458543446 0.000051014244623281893 0.000019502180582442412
vn 0.00008911634937014412 -0.000004030507966934412 -0.0002935014975276041
vn 0.0000998123468942678 0.0000024039825063937687 -0.0002282632742556246
vn 0.00017233955391615652 -0.000004021719874458518 -0.0002646575888194391
vn 0.0000000014001284576181663 -0.000052624903872811073 -0.0000000014619381261127273
vn 0.0002974617213400422 -0.000006282344678254446 -0.000225883244337588
vn 0.00026469565761644287 0.0000031639749380475127 -0.00017235725280606562
vn 0.000060289113497091775 0.00005101287313102888 -0.000019501090178342165
vn 0.00006322175593276306 0.000056983133897903256 -0.0000045080833264987685
vn 0.00023685038837317768 -0.0000006143873889640556 -0.00007661273990056136
vn 0.000000000025753565922488723 0.0000000000402465456419851 0.00002681864990747729
vn 0.0000675623823043342 -0.000014312755246118121 0.00011452935995265746
vn 0.00002853886045595103 -0.000022003124606030483 0.0000756838579283603
vn 0.000000002093962558966092 -0.000025938178772833012 0.000000002562219325705172
vn 0.000025407969978630215 0.00005106564581325303 -0.00005810485927604249
vn 0.000000000004138994722201543 0.000000000024090877283929532 0.00002034943127077542
vn -0.00022829063972817926 -0.0000024035787618004212 0.00009982428342336647
vn -0.0000000004847710566302512 -0.000019642677795417295 0.00000000013264335463336607
vn -0.00019757490239857844 -0.000002400948901026931 0.00015142415365598804
vn -0.00021166258101423818 0.0000024024777474096075 0.00013105084323328212
vn -0.00006957640899951657 0.00006381103223018769 -0.00001441452353811987
vn -0.0000779873353722316 0.0000649269156451915 0.000004147686994360237
vn -0.00007277317431819696 0.0000650978188572181 0.000007432554387953844
vn -0.000000001849592923264254 0.00003620374336055228 0.00000000021484969359164495
vn -0.00000000221133245048577 0.00009466590852014172 -0.00000000017429258036827315
vn -0.00012648252618130388 -0.0000032937724299131197 -0.00021441623690865447
vn -0.00018737088802289766 0.0000040257764624130506 -0.00024277642551728836
vn -0.000174274887805748 -0.0000024048678710642064 -0.0001780678421825499
vn -0.0000000006518767747820679 -0.000019629796540243826 -0.0000000008506901849614224
vn -0.00000000008943734641775336 -0.00001960261959510481 -0.000000000045887960098411895
vn -0.0002550047419558331 0.0000040227942008640905 -0.00018635496325902768
vn -0.000211685044140264 -0.0000022277512243818587 -0.0001310635713860363
vn -0.00023684871136353536 0.0000006138913803965023 -0.0000766138323098355
vn -0.0003582982225154299 0.000004567395725629827 -0.00010572256917684708
vn -0.00009120572457277383 0.00007487008216600092 -0.000026912454883620818
vn -0.00006227597317831629 0.00006648011958532161 -0.000038417480734409584
vn -0.00006491134371611193 0.00006556370512100788 -0.000047435328516698385
vn 0.0002483706914281349 0.0000007997140114569059 -0.000017711212290244527
vn 0.00024870611685989813 -0.0000008008725558283848 -0.00001239031332206356
vn 0.0000000002930815590218573 -0.000025936020286110455 -0.00000000005733447050459972
vn 0.00029217174138507234 -0.0000011467913303419373 -0.00009341967079123955
vn 0.0002836039718276953 -0.0000031733164007619696 0.00013923349267486217
vn 0.0000000000128767829732368 0.000000000020123272839733808 0.00001290139170407115
vn 0.00003074107404778267 -0.00004097104741363096 0.00010438762427031735
vn 0.0000034671777715127603 -0.00004810670862393947 0.00009583088427854958
vn -0.000000002470833870837918 -0.000016972747112431406 0.00000002861012493582394
vn -0.0000000014720646923649383 -0.00017525300380150094 0.000000001128210858070134
vn -0.0000000033279430322608063 -0.0005650897018883443 0.0000000006314614248159599
vn -0.0000000023455897224522468 -0.00041451526088137646 0.0000000003455983416111864
vn -0.0000000031768737085435816 -0.0010314853992019484 -0.0000000017065271418204026
vn -0.000000002281568711737238 -0.0012496700795132662 -0.0000000029774156473649786
vn -0.00000000054254822856592 -0.0006746002471835771 -0.0000000018086971920183723
vn -0.0000000006169493804719652 -0.0008553312205326072 -0.0000000023049762098992232
vn 0.0000000009292357577850298 -0.0007921153693100097 -0.0000000021498173241596427
vn 0.000000003500321144045416 -0.001439628435004892 -0.0000000036548453152818183
vn 0.000000004029871436550538 -0.0007541764129094245 -0.0000000007883489694382462
vn 0.000000001821408024405003 -0.00022144553284453343 0.00000000035387873187353446
vn 0.000000002874900317451575 -0.00017868891887218286 0.000000001927789483187654
vn 0.000000002603706250641003 -0.00007296773827114567 0.000000003113418856187448
vn 0.0000000010499130453922585 0.00017291308410882783 -0.0000000007629021858690521
vn 0.000000002361213891077797 0.00026381796069463475 -0.0000000007617010355787104
vn 0.00004860473720214034 0.00006313697682003297 -0.00006110596159558668
vn 0.00003841665915871315 0.0000666364379497964 -0.00006227316279172614
vn -0.0000000012000033743711043 -0.00010846147840481971 0.000000001569551377528888
vn -0.0000000007940670343582813 -0.00005495439459934922 0.0000000017149659471514483
vn -0.000030485489034615053 -0.000011226306883688346 0.00006007525678605224
vn -0.00004779174688884784 -0.000025564922426224367 0.00010321700173676611
vn -0.00002116534031718076 -0.00005012243175521633 0.00011281547799548572
vn -0.00000663973408955576 -0.000020277483386724283 0.00004564851277718326
vn -0.00000000012786562087746022 -0.00000000014244059233252607 0.000008814498843534838
vn -0.00004769498870516036 0.00006568811291174382 -0.00006179937811667818
vn -0.00005421105569780593 0.00007601061402695569 -0.00006553167582512565
vn -0.0000000006199174507059981 0.000040783358684848295 -0.0000000005531963775951001
vn -0.0000000022317028225415933 0.0004945458322964673 -0.0000000019915069593423604
vn -0.0000000012366787593975922 0.001479258463457534 -0.0000000046086430227632044
vn -0.00000000009656631050347642 0.0005298178156136758 -0.000000002150835287650921
vn -0.00002648714071407099 0.00006507045448023171 -0.00007592824583979586
vn -0.000017711014596674296 0.0000008001625602105471 -0.0002483818564450458
vn -0.00007151898845203508 -0.0000007994974442482401 -0.00023842340049862198
vn -0.00010405338216673554 0.0000031767452863817838 -0.0002982837231511049
vn 0.00022828331792101888 0.0000008013439369848236 0.00009982395200180941
vn 0.0002444638214620377 -0.0000008014833978718907 0.000047496522453393896
vn 0.00024542089873125233 0.0000008005441851643994 0.0000422471883922417
vn 0.00006247144856530441 0.00004945732059480344 0.000010754110332689187
vn 0.00000000023115109826221649 0.00039962151731742795 0.000000006172166777673739
vn 0.0000000006359357485052899 0.00002321466876509245 -0.0000000003452127472769464
vn 0.00006395357750932364 0.00006445429825951976 -0.00003090910253145121
vn 0.00006737670004497434 0.00006458313622204062 -0.00004387320129062286
vn 0.00004292217266765879 0.00005258511538386306 -0.000038530642122225345
vn -0.0000000014043921581219373 0.000017570685400869445 0.000000001922450643121465
vn -0.00004292868113520143 0.0000511885375544808 0.000038537852456777016
vn -0.00003148530016083842 0.00005256967160960359 0.000048319154567266764
vn -0.00005493755379859522 0.00006484845515331028 0.00005873975932679805
vn -0.00021581893378019856 0.000004022072303655369 0.0002307642427306081
vn -0.00015563816259378519 -0.0000022237840653361576 0.0001943083925088908
vn -0.00031362238962096033 -0.000002918799883011787 0.00046228151635814227
vn -0.000033095448904313394 0.000021177702615043262 0.0000712176619586131
vn -0.00003945007962752332 0.00007920701273844707 0.000093189124034776
vn -0.000052725593656849496 0.000047589745716153386 0.0001245582996309454
vn -0.00000000003511502200126415 0.00007235623441192979 -0.0000000007821219227821532
vn 0.000015478585468131586 0.00007743538766757932 -0.00008511025065149894
vn 0.00001075496832519946 0.000055858279678980265 -0.00006247138691578559
vn -0.000004508105191702763 0.00005128745795522642 -0.00006322528070226709
vn -0.000023726338926360843 0.00009583476621605208 -0.00009859747560139744
vn 0.00005810948217543916 0.000055776422385633986 0.00002540972216591437
vn 0.00008120859647964278 0.00007918024481856634 0.00003417089247531598
vn 0.0000000010673872896660443 0.00008006270882598992 -0.00000000006504713434551945
vn 0.000000004102719497467434 0.00046089934403825727 -0.00000000069015493320279
vn 0.00000000360994567571993 0.0014015114258256753 0.000000002467663406946486
vn 0.0000000010164509234300571 0.00039366540926266696 0.0000000009058034322606537
vn 0.00004401860077890565 0.00009249252719989441 0.0000903054155880767
vn 0.000026645536544162066 0.00005633378673897132 0.00005754971627425224
vn 0.00003571843186483965 0.000023251429013187976 0.00007714528242778502
vn 0.00003792510033476251 0.00001796335996109584 0.00007620928165020387
vn 0.000331445078190565 -0.0000002957178466544974 0.0004839512014151319
vn -0.0000043488902383702435 0.000058756193559458505 0.00009522352464155609
vn 0.00000016464011065586725 0.000021054175552963207 0.0000354695036629011
vn 0.00001583071704841503 0.00004911875543795001 0.0000843587521774259
vn 0.00001181043676032329 0.00004981251222546664 0.0000629447169515629
vn -0.0000032503274770833286 0.00006129425446321788 0.00007125458586343393
vn -0.0000004957984267306629 0.00008002314266364324 0.00008813267799689942
vn 0.00000000008684300500938463 0.00008007167026735662 0.0000000014114829305356129
vn 0.00000000006832789889443802 0.00011388691035207897 0.000000001781318648141905
vn -0.000017900730689579536 0.0000511518303152326 0.00005481702570397928
vn 0.00015563620517689003 0.0000023975788963070886 0.0001943026406689975
vn 0.00021854522508046875 -0.000004034186275703218 0.00021538838526780063
vn 0.00019757911673856654 0.0000032900410928959273 0.00015141511146055117
vn 0.000050293378590637845 0.00005267694504595973 0.00003854360380195487
vn 0.00005305619707574041 0.00006412573405611971 0.00004728067465542549
vn 0.00003961846315814199 0.000050851947847263566 0.00004946072385259017
f 18//1 50//1 19//1
f 44//2 45//2 12//2
f 21//3 52//3 53//3
f 51//4 19//4 50//4
f 71//5 39//5 54//5
f 13//6 12//6 45//6
f 11//7 44//7 12//7
f 43//8 44//8 11//8
f 43//9 36//9 66//9
f 43//10 66//10 63//10
f 43//11 63//11 44//11
f 20//12 19//12 51//12
f 20//13 51//13 52//13
f 20//14 52//14 21//14
f 22//15 20//15 21//15
f 22//16 21//16 53//16
f 22//17 53//17 37//17
f 38//18 37//18 54//18
f 38//19 54//19 39//19
f 38//20 22//20 37//20
f 2//21 4//21 6//21
f 28//22 27//22 2//22
f 28//23 2//23 6//23
f 28//24 26//24 27//24
f 57//25 52//25 51//25
f 1//26 6//26 4//26
f 10//27 43//27 11//27
f 10//28 11//28 12//28
f 10//29 9//29 36//29
f 10//30 36//30 43//30
f 65//31 59//31 45//31
f 65//32 45//32 44//32
f 65//33 44//33 63//33
f 65//34 63//34 66//34
f 65//35 66//35 59//35
f 48//36 17//36 16//36
f 48//37 16//37 47//37
f 15//38 47//38 16//38
f 15//39 16//39 17//39
f 15//40 13//40 14//40
f 46//41 47//41 15//41
f 46//42 15//42 14//42
f 46//43 14//43 13//43
f 46//44 13//44 45//44
f 46//45 45//45 59//45
f 46//46 59//46 61//46
f 46//47 61//47 47//47
f 23//48 38//48 39//48
f 23//49 39//49 24//49
f 23//50 24//50 22//50
f 23//51 22//51 38//51
f 41//52 26//52 25//52
f 5//53 4//53 2//53
f 29//54 28//54 6//54
f 29//55 6//55 30//55
f 29//56 30//56 7//56
f 29//57 9//57 10//57
f 29//58 10//58 12//58
f 29//59 12//59 13//59
f 29//60 13//60 15//60
f 29//61 15//61 17//61
f 29//62 17//62 18//62
f 29//63 18//63 19//63
f 29//64 19//64 20//64
f 29//65 20//65 22//65
f 29//66 22//66 24//66
f 29//67 24//67 25//67
f 29//68 25//68 26//68
f 29//69 26//69 28//69
f 56//70 57//70 68//70
f 56//71 68//71 54//71
f 56//72 53//72 52//72
f 56//73 52//73 57//73
f 8//74 9//74 29//74
f 8//75 29//75 7//75
f 3//76 1//76 8//76
f 3//77 8//77 7//77
f 3//78 7//78 30//78
f 3//79 30//79 6//79
f 3//80 6//80 1//80
f 60//81 48//81 47//81
f 60//82 47//82 61//82
f 60//83 61//83 59//83
f 60//84 59//84 66//84
f 60//85 66//85 68//85
f 60//86 68//86 57//86
f 49//87 48//87 60//87
f 49//88 50//88 18//88
f 49//89 18//89 17//89
f 49//90 17//90 48//90
f 40//91 41//91 25//91
f 40//92 25//92 24//92
f 40//93 24//93 39//93
f 40//94 39//94 71//94
f 72//95 66//95 64//95
f 55//96 56//96 54//96
f 55//97 54//97 37//97
f 55//98 37//98 53//98
f 55//99 53//99 56//99
f 67//100 64//100 66//100
f 67//101 66//101 36//101
f 35//102 64//102 67//102
f 35//103 67//103 36//103
f 35//104 36//104 9//104
f 35//105 9//105 8//105
f 35//106 8//106 1//106
f 35//107 1//107 4//107
f 34//108 64//108 35//108
f 34//109 35//109 4//109
f 58//110 60//110 57//110
f 58//111 57//111 51//111
f 58//112 51//112 50//112
f 58//113 50//113 49//113
f 58//114 49//114 60//114
f 69//115 41//115 40//115
f 69//116 40//116 71//116
f 69//117 71//117 54//117
f 69//118 54//118 68//118
f 69//119 68//119 66//119
f 69//120 66//120 72//120
f 31//121 72//121 70//121
f 31//122 70//122 32//122
f 31//123 32//123 5//123
f 31//124 5//124 2//124
f 31//125 2//125 27//125
f 33//126 34//126 4//126
f 33//127 4//127 5//127
f 33//128 5//128 32//128
f 33//129 32//129 70//129
f 62//130 34//130 33//130
f 62//131 33//131 70//131
f 62//132 70//132 72//132
f 62//133 72//133 64//133
f 62//134 64//134 34//134
f 42//135 31//135 27//135
f 42//136 27//136 26//136
f 42//137 26//137 41//137
f 42//138 41//138 69//138
f 42//139 69//139 72//139
f 42//140 72//140 31//140
