v -0.03630610555410541 0.01106629054993398 0.34692996740341286
v 0.0003271372406741697 0.0376606024801734 0.3469299972057339
v -0.014109759591520082 0.03491905331611673 0.34692999720573436
v -0.0017861325759439932 0.03791318461298971 0.07399999350309282
v -0.00032730889506627165 -0.03766071051359194 0.34692999720573503
v 0.014109775424003785 -0.0349192470312121 0.34692972898483343
v 0.026398938149214016 -0.02686133049428492 0.3469294309616094
v 0.03466866910457635 -0.014714445918798702 0.3469299376010895
v 0.037660609930753874 -0.0003270017041361146 0.34692996740341187
v 0.034919127821922434 0.014109535142779227 0.3469299674034116
v 0.02686137147247792 0.026398813351988768 0.34692993760108903
v 0.019578438252210624 0.03251591697335258 0.07399999350309287
v -0.03434374183416605 -0.016158714890479403 0.07400001585483576
v -0.014714359305798978 -0.034668743610382385 0.34692999720573536
v -0.026861125603318683 -0.026399133726954276 0.34692999720573525
v -0.026398779824376776 0.02686143293976825 0.34692999720573403
v -0.019534356892109094 0.032199911773205456 0.07399999350309336
v -0.022273732349276258 -0.03036959283053903 0.07400000095367452
v -0.036335736513140614 -0.01096886675804767 0.3469300270080569
v -0.030369691550732256 0.02227371744811594 0.07400003820657712
v -0.0375331081449991 0.005644510965794766 0.0739999935030941
v 0.014714383520185871 0.034668579697609 0.3469299674034115
v 0.037626001983881247 -0.0016477126628161114 0.07399999350309336
v 0.034343697130680244 0.016158910468220697 0.07400000840425426
v 0.03413129225373295 -0.01592133939266214 0.0740000009536741
v 0.025440735742450007 -0.02777059562504298 0.07400000095367423
v 0.012876434251666282 -0.035392478108406115 0.07400000840425515
v -0.005644450429826843 -0.03753315657377243 0.07400000095367469
v 0.03491912782192227 0.014109535142779328 0.3469299674034118
vn -0.0015593235773165163 0.0048440229283262465 -0.00001726772962677036
vn 0.0014730761160191967 0.005831031758519748 -0.00001973811003892361
vn 0.0000000006127072777016675 0.0000000006021483086086463 0.00008264195206978965
vn 0.0022570670487175155 0.0033152769598264256 0.000014076227949262173
vn 0.004464316779904256 0.004029881171768991 -0.000028806367504492585
vn -0.0021991663591512645 0.0033540423376554056 0.000010293760305873169
vn -0.000000000000000010170436312301904 -0.000000000000000003312691647300861 -0.0003684794336524275
vn -0.0000000006425312564993935 -0.00000000031731099554760866 -0.00021784144753703692
vn -0.006014055232120092 0.000008087250011171558 0.000026876542578887908
vn -0.005950754792131253 -0.0008704738273119214 -0.000026879583098261144
vn -0.00000000024013581675921115 0.0000000003662413522577761 0.0003848290937072164
vn -0.000000001598162674970018 0.0000000005914056950026283 0.00021784145573887627
vn -0.0007482510234969605 0.003940262305865426 0.000009440135292300347
vn -0.00000000008170451210716306 0.00000000043025304620486007 0.0006015455595048754
vn 0.0000000006127072759438258 0.0000000006021483093548021 0.0002353349820151051
vn 0.0008166127966512222 0.003926711243318286 -0.000002688990086394684
vn -0.0045386086488304975 0.0019551110492590706 -0.000018434386405165867
vn -0.004310967428118742 0.0027040058868637424 0.00001726912440412581
vn -0.0027091560152512108 0.002957287621633751 -0.000010293391227021507
vn -0.0000000011871189214853278 0.0000000008046068763993861 -0.00010907755219703196
vn -0.004211382781251336 -0.002585905601924064 0.00001843478203863778
vn -0.0038785748037545157 -0.003294267575115823 -0.00001726740655661484
vn -0.0022570245944900386 -0.003315216880056711 0.000010292286232302924
vn -0.0000000002464535755117774 -0.00000000036200183745291477 0.00010907651075814709
vn -0.000000000000000033044737462094753 -0.00000000000000006966716685065476 -0.002685959736258463
vn -0.0000000000000000007251123152283278 -0.000000000000000009375413279870807 -0.0006324837534055334
vn 0.0000000005090777508681118 0.0000000002689296526564868 -0.00020923071844546894
vn -0.00195515142559209 -0.004538629851949791 -0.000017339739676406186
vn -0.0000000000533727018396357 -0.00000000012389779989929774 -0.0004895771739109346
vn -0.000000000054331331633914606 -0.0000000005599790310631305 -0.00301265584643925
vn 0.00000000007273673792712662 -0.00000000023160268799435336 -0.0006930752758789534
vn 0.0033541121366926535 0.00219920309292992 0.00000944173918617789
vn 0.0000000000000000027287709233074273 0.0000000000000000017891862882782173 0.0000000000000000012332799712022613
vn 0.0032340107495216768 -0.0023719086350762033 -0.000003451965837638767
vn 0.00000000008828383823650646 -0.00000000006474969244050334 -0.00008263604866636404
vn 0.00000000007273674680642251 -0.00000000023160268911494854 -0.00011426787689657046
vn 0.0033152478261910387 -0.002257056873481882 0.0000034532297399002493
vn 0.003895700048097788 -0.0009538109092542498 -0.0000034525742158357335
vn 0.0020802382600081507 -0.0034291713043588536 -0.0000034545635487758426
vn 0.002199242838457176 -0.003354074463432962 0.000003452992133058219
vn 0.000000007702512348157732 -0.000000008690746895146215 0.0000826382393313436
vn 0.003926764734639894 -0.0008165903305685328 0.0000034535691318408058
vn 0.0048599611667265565 0.0008958393784327369 -0.000004951226656650932
vn 0.003940163409718428 0.0007482325995602882 -0.0000026889005879854452
vn 0.0000000000000000032055551206590023 0.0000000000000000006087313117645651 0.000000000000000002128334964850933
vn 0.00000000043024232257401934 0.00000000008170253478682543 0.00043482371688498587
vn 0.0000000025813899534161574 0.000000000019985440699267268 0.003208241698157424
vn 0.0000000059912638188115275 -0.00000000852613547779731 0.00023533696104653345
vn 0.0000000015414104878693894 -0.0000000012212949910765472 0.00043484881535798354
vn 0.0000000019081101606842606 -0.0000000000589933881739008 0.0023582957452766445
vn -0.00000000008916755183780792 -0.0000000004287674953676894 0.00027628087799652125
vn -0.0008165975156792722 -0.003926657614679483 0.000014073586529413643
vn 0.0005842553664796455 -0.00505490494708897 -0.000013744702190834002
vn 0.0007482269891582543 -0.00394030972000992 0.0000034509171785755103
f 4//1 17//1 3//1
f 4//2 22//2 12//2
f 11//3 22//3 29//3
f 11//4 12//4 22//4
f 24//5 12//5 11//5
f 16//6 3//6 17//6
f 21//7 17//7 4//7
f 21//8 18//8 13//8
f 19//9 1//9 21//9
f 19//10 21//10 13//10
f 19//11 3//11 16//11
f 19//12 16//12 1//12
f 2//13 4//13 3//13
f 2//14 3//14 19//14
f 2//15 29//15 22//15
f 2//16 22//16 4//16
f 20//17 21//17 1//17
f 20//18 1//18 16//18
f 20//19 16//19 17//19
f 20//20 17//20 21//20
f 15//21 19//21 13//21
f 15//22 13//22 18//22
f 15//23 18//23 14//23
f 15//24 14//24 19//24
f 23//25 21//25 4//25
f 23//26 4//26 12//26
f 23//27 12//27 24//27
f 28//28 14//28 18//28
f 28//29 18//29 21//29
f 28//30 21//30 23//30
f 28//31 23//31 26//31
f 10//32 24//32 11//32
f 10//33 11//33 29//33
f 25//34 7//34 26//34
f 25//35 26//35 23//35
f 27//36 28//36 26//36
f 8//37 7//37 25//37
f 8//38 25//38 23//38
f 6//39 27//39 26//39
f 6//40 26//40 7//40
f 6//41 7//41 8//41
f 9//42 8//42 23//42
f 9//43 23//43 24//43
f 9//44 24//44 10//44
f 9//45 10//45 29//45
f 9//46 29//46 2//46
f 9//47 2//47 19//47
f 5//48 6//48 8//48
f 5//49 8//49 9//49
f 5//50 9//50 19//50
f 5//51 19//51 14//51
f 5//52 14//52 28//52
f 5//53 28//53 27//53
f 5//54 27//54 6//54
