v -0.028129339218139638 0.03143167495727541 0.05086183547973633
v -0.020860910415649185 0.035008907318115304 0.05416560173034676
v -0.022525310516357457 0.03227472305297849 0.05355668067932126
v -0.028761267662048343 0.029168486595153833 0.05181455612182617
v -0.03740274906158448 0.011989593505859372 0.04434692859649658
v -0.03719526529312125 0.02167779207229628 0.044566392898559654
v -0.0377225875854492 0.015596508979797499 0.046193361282348716
v -0.03730261325836176 0.014756441116333091 0.04634499549865728
v -0.039561867713928216 0.009100437164306596 0.04242885112762451
v -0.03395688533782959 0.022586107254028414 0.049533486366272084
v -0.02855920791625973 0.02816104888916014 0.052275776863098145
v -0.03719526529312127 0.02167779207229615 0.04456639289855954
v -0.03395688533782954 0.022586107254028362 0.049533486366272084
v -0.020860910415649452 0.03500890731811522 0.05416560173034665
v -0.028559207916259783 0.028161048889160153 0.052275776863098145
v -0.022525310516357398 0.03227472305297855 0.05355668067932129
vn 0.00009223684062220839 0.000012197854992733871 -0.00017389352887420463
vn 0.00000970428816060621 0.000015806275584396744 -0.00003846447916089546
vn -0.000004147470761495354 -0.0000013020998181902866 0.000004273303517266367
vn -0.0000000000000000002439454888092385 0.000000000000000000874138001566438 -0.0000000000000000009893344823930228
vn -0.0000000000000000011145555650631472 0.0000000000000000002182491230802862 -0.00000000000000000005019166520849979
vn -0.000033461955418091196 0.00000497756074224786 0.000007759659666816785
vn 0.000015049065410721948 -0.000028803891623852186 0.00003913233754815332
vn 0.00000046569959977212937 -0.000004121995289096931 0.000005684644293069105
vn 0.000000000000000000012123986238188667 -0.0000000000000000001302648164551562 0.00000000000000000026733236626795063
vn 0.000012300036303258513 -0.000008651132162640541 -0.0000008147556513895339
vn 0.000016314225945278187 -0.000008147242311907506 -0.000008009802854753935
vn -0.00000000000000000003790472438962994 0.000000000000000000010164395367051604 0.00000000000000000005675120746603812
vn -0.0000009973242640622253 -0.0000015422307058091699 0.00000965098763572247
vn -0.0000036955685516193494 -0.000008035487283564824 0.000023609774245869535
vn 0.000007227288818967498 -0.00002458626498480451 0.00004491450732757449
vn -0.00003168410160725455 0.000007888000915557072 0.000019214530425414853
vn -0.000003865793999580088 -0.0000008317574753393806 0.000006098897273432561
vn -0.00000000000000000016601845766184287 -0.00000000000000000015585406229479126 0.0000000000000000005522654816098038
vn -0.000011433659196313458 0.000006391445069198156 0.000007599068723607088
vn -0.000042730201890606215 0.000024644267121232824 0.000023352060530611776
vn 0.00000000000000000012205877118832322 0.00000000000000000007563491367000927 -0.00000000000000000035043010342440956
vn -0.000010885148441275197 0.000009012526021479043 0.000014189268597419706
vn -0.00000000000000000014271347108376809 -0.00000000000000000013319923967818355 0.0000000000000000005516918318549927
vn -0.000000000000000000037269449679189215 -0.00000000000000000014230153513872246 0.00000000000000000036253010142484055
vn -0.00000000000000000002622658850160745 -0.00000000000000000009834970688102794 0.000000000000000000463209562501127
vn -0.0000000000000000006029054787103013 0.00000000000000000034982088490327466 0.0000000000000000011883756444692069
vn -0.00000506225516971883 0.000003168756947502536 0.000009139231707422463
vn -0.000005333965560794159 0.0000019354142608563577 0.000006564295048860949
f 12//1 2//1 9//1
f 1//2 2//2 12//2
f 7//3 9//3 8//3
f 6//4 1//4 12//4
f 6//5 12//5 9//5
f 6//6 9//6 7//6
f 5//7 3//7 8//7
f 5//8 8//8 9//8
f 16//9 3//9 5//9
f 16//10 5//10 9//10
f 16//11 9//11 2//11
f 16//12 2//12 3//12
f 11//13 3//13 2//13
f 11//14 13//14 8//14
f 11//15 8//15 3//15
f 10//16 6//16 7//16
f 10//17 7//17 8//17
f 10//18 8//18 13//18
f 10//19 4//19 1//19
f 10//20 1//20 6//20
f 14//21 2//21 1//21
f 14//22 1//22 4//22
f 15//23 10//23 13//23
f 15//24 13//24 11//24
f 15//25 11//25 2//25
f 15//26 2//26 14//26
f 15//27 14//27 4//27
f 15//28 4//28 10//28
