v 0.039571523666381905 0.009071826934814314 0.04241788387298576
v 0.03329348564147948 0.027011990547180446 0.047605395317077775
v 0.038597941398620654 0.01715183258056647 0.04328584671020508
v 0.02063679695129385 0.03414106369018571 0.054277956485748374
v 0.03541493415832522 0.01820898056030273 0.04813551902770996
v 0.025300979614257722 0.03293657302856476 0.0522141456604005
v 0.02562069892883294 0.03150796890258817 0.05315202474594127
v 0.035414934158325244 0.01820898056030278 0.04813551902770996
v 0.03329348564147956 0.027011990547180384 0.04760539531707769
v 0.03278303146362308 0.024170994758606224 0.05037862062454229
v 0.037833213806152365 0.014922857284546023 0.046102404594421414
v 0.03278303146362307 0.024170994758605985 0.050378620624542236
v 0.020636796951293914 0.034141063690185575 0.05427795648574829
vn 0.00003961625900927888 0.00001250551931519771 0.000020103095295098724
vn -0.00007407028780903684 0.000004887882731453801 -0.00012858573438734704
vn -0.0000000000000000004336808689942018 -0.0000000000000000008131516293641283 0.0000000000000000010299920638612292
vn -0.00003499812920182502 0.000019276876493280932 -0.00008698109674299244
vn -0.00003496944390235583 -0.000058964405724283515 0.00006880698038003348
vn 0.00000000000000000020498197323554068 -0.00000000000000000017702988597614877 0.0000000000000000007115076756936123
vn 0.00000000000000000025664643352469667 -0.000000000000000000436078038409387 0.0000000000000000018164249322593072
vn 0.000000958296126896223 -0.000005758076753182457 0.00001770765948094975
vn 0.0000008840182275096983 -0.000016982565469447784 0.000046175771331036854
vn -0.00000021197504906874293 -0.000005376018606284752 0.000008437127121397431
vn 0.000024692471328081426 0.0000020783956813374945 0.000008349094088089622
vn 0.00003557949440846687 0.000010953990503992332 0.00001832903758725026
vn 0.000028226311805212425 0.000018447066125304246 0.000024093345672326878
vn 0.00000000000000000040996394647108136 0.00000000000000000018846483076408183 0.0000000000000000002685094442796132
vn 0.000004750348750804108 -0.00000007348758401815623 0.000005769060891225844
vn 0.00000000000000000011011428314305904 -0.00000000000000000004658681209898652 0.0000000000000000002541098841762901
vn 0.00000000000000000009875295742964186 -0.000000000000000000042322696041275083 0.0000000000000000001858674836406623
vn 0.00000000000000000020550392420206626 0.00000000000000000028175426024782095 -0.000000000000000000005811770983799498
vn -0.0000066760207104728825 0.000005001032988616858 -0.00001800643602223531
vn -0.00000000000000000018611729218566404 0.00000000000000000025948614456758053 -0.0000000000000000005720648767518822
vn 0.000004078035260590583 0.000005034279553228808 0.000006278171667872966
vn 0.000012140621755918466 0.000008969510744805278 0.000009523923637289241
f 10//1 3//1 9//1
f 13//2 3//2 1//2
f 13//3 1//3 4//3
f 13//4 9//4 3//4
f 5//5 4//5 1//5
f 12//6 5//6 10//6
f 12//7 10//7 7//7
f 12//8 7//8 4//8
f 12//9 4//9 5//9
f 11//10 5//10 1//10
f 11//11 1//11 3//11
f 11//12 3//12 10//12
f 2//13 7//13 10//13
f 2//14 10//14 9//14
f 8//15 11//15 10//15
f 8//16 10//16 5//16
f 8//17 5//17 11//17
f 6//18 2//18 9//18
f 6//19 9//19 13//19
f 6//20 13//20 4//20
f 6//21 4//21 7//21
f 6//22 7//22 2//22
