v -0.03768721222877504 0.0016954599414021093 0.3469301164150238
v -0.036599814891815165 0.04749980568885803 0.4004998207092284
v -0.02379417419433585 0.04225100576877597 0.42189884185791016
v -0.030797958374023472 -0.013431549072265722 0.4140586853027344
v -0.011333465576171802 0.04220391809940357 0.4282832145690921
v -0.019083023071289063 0.04749982804059988 0.424687385559082
v 0.030542373657226025 0.04225029051303825 0.4142761230468757
v -0.016331758350133792 0.03391017019748696 0.3469296991825105
v 0.024482727050775324 -0.010265111923203547 0.42126798629761286
v 0.027134656906128044 0.04749988764524479 0.36608076095581066
v 0.03346633911132766 -0.015446186065674064 0.40948772430419955
v 0.035878717899322045 0.04749989137053465 0.4044002294540411
v 0.03724414110183678 -0.020795822143554805 0.39733314514160184
v -0.0018140673637390813 0.047499880194663835 0.4304686188697818
v 0.02259850502014101 0.04749986156821208 0.4230816364288338
v 0.03748403862118752 0.005104482173919613 0.3914570510387423
v -0.001814067363738865 0.047499880194664015 0.4304686188697815
v 0.037439964711665705 0.04224247485399226 0.39572018384933516
v -0.021180152893066493 -0.009195804595947188 0.4237008094787599
v 0.011177062988281423 0.041986271739008554 0.42838191986084195
v 0.024482727050780684 -0.010265111923218198 0.4212679862976081
v 0.034837245941161527 0.04213434457778896 0.40644264221191473
v 0.009151458740238637 -0.006872475147249897 0.4289753437042244
v -0.007162094116211072 -0.00668036937713603 0.4294137954711915
v -0.03752034902572616 -0.02412605285644553 0.38976716995239213
v -0.03046965599060055 0.04749982804059975 0.414839506149292
v -0.03479146957397461 0.0399852395057678 0.4064941406249999
v -0.036721706390380957 -0.019084453582763717 0.40122413635253884
v -0.03327512741088863 0.04224818944931031 0.4097747802734374
v 0.03482945635914847 0.014610338956118185 0.3469340801239015
v -0.008516192436217873 0.047499842941761045 0.3553126156330108
v 0.011989116668701257 0.04749988391995438 0.3567696809768678
v -0.028139829635619774 0.04749983176589022 0.3671567440032958
v -0.03480172157287581 -0.029163360595703423 0.37830924987792924
v -0.0020451908931135294 0.03777171298861519 0.3469294011592865
v 0.012109263800084655 0.03558700531721127 0.3469308614730836
v -0.037174649536609705 0.04749982804059957 0.38545712828636225
v -0.037451036274433094 0.0422426164150238 0.3960915803909303
v -0.028285631909966417 0.025184813886880975 0.3469354510307313
v -0.037174649536568294 0.04749982804061025 0.38545712828627804
v 0.03687502443790491 0.047499891370535036 0.3840157091617591
v 0.033466339111328014 -0.015446186065673861 0.40948772430419916
v 0.025772422552108806 0.027628395706415336 0.3469342589378358
v 0.037485472857952076 0.002686524298042112 0.3469302058219909
v 0.03751389682292945 -0.0016198158264157097 0.38235694169998186
v 0.015994502231476682 -0.03432407975197002 0.34692981839179793
v 0.03649830818175791 -0.02701425552367807 0.3832044601440112
v 0.030001495033502 -0.022690026089549512 0.3469302356243128
v 0.037485472857952416 0.0026865242980426245 0.3469302058219914
v 0.0370926856994629 -0.005867455154657367 0.34693038463592524
v 0.022479057312011722 -0.03625559806823742 0.36220026016235346
v -0.011962890624999981 -0.038541316986084075 0.3569307327270508
v 0.03471351787447932 -0.01440134551376107 0.3469313085079193
v 0.03649830818176265 -0.027014255523681672 0.38320446014404297
v 0.03149032592773436 -0.031902313232421944 0.37209033966064453
v 0.037244141101837006 -0.02079582214355478 0.39733314514160156
v -0.007162094116210995 -0.006680369377136314 0.4294137954711914
v -0.0005682706832885466 -0.03952665627002731 0.3547176420688629
v -0.004345521330833382 -0.03766630589962018 0.3469299077987671
v -0.025189876556396398 -0.035368442535400495 0.3642158508300781
v -0.03476390987634653 0.014270186424255425 0.34693121910095215
v -0.03752034902572653 -0.02412605285643997 0.3897671699523973
v 0.012416839599609365 -0.03852820396423356 0.3570222854614258
v -0.036721706390380825 -0.01908445358276444 0.40122413635253834
v -0.027648925781249577 -0.025524541735649185 0.3469308316707607
v -0.034893706440925605 -0.01439967565238474 0.34693118929862976
v -0.018364474177402078 -0.03272555395956197 0.3469307124614486
v -0.027648925781250007 -0.0255245417356491 0.3469308316707611
v -0.018364474177360483 -0.03272555395960815 0.3469307124614716
v 0.030001495033502606 -0.022690026089549103 0.3469302356243133
vn -0.0000000007265374755896266 0.00241809146357848 -0.00000000001384602917425384
vn -0.000011790684534940803 -0.00009709767033649898 -0.0000174761119808854
vn 0.000000000568117562630344 0.0003579605006542873 0.0000000009749146038008477
vn 0.0000000000000000013327008769765488 0.000000000000000006532427096120184 0.000000000000000004404306522913143
vn -0.0000000001518765230860532 0.0005344326879442104 -0.000000000007423052550142254
vn -0.0000000005016349563526251 0.00027146043499470666 -0.000000000574976513359769
vn -0.0004844161286515639 0.0001126255392398566 -0.00012745468135659115
vn 0.000012063125427896903 -0.00009241937260417974 -0.000027928259343168686
vn 0.0005243444030931228 -0.00003545217237643488 -0.000012075882872994724
vn 0.000000000000000002069093040627875 -0.0000000000000000034422459446903915 0.0000000000000000014058052383575877
vn -0.000000000000000006437794506267691 -0.000000000000000004651600543855258 0.00000000000000000502011612419251
vn -0.00000014213742361059026 -0.00006632268127760373 0.00002927705304501245
vn 0.00002355278849815419 -0.000019552769046531642 0.000884899751963067
vn -0.0000000000000000010430168497864853 0.000000000000000007002815604061426 0.0000000000000000031155024521433557
vn -0.0000000005136069335877963 0.00010423381181112753 0.0000000005938591812996288
vn -0.00007908237978692772 0.000010270652184950512 0.0000030220335551225092
vn -0.0006896490134396159 0.00001609917852962291 -0.000009965069332910893
vn -0.0002973272807160602 0.0000011538799817860048 0.0000560371385589489
vn -0.0003936844335896705 0.0000020404694396352535 0.00012132329522884746
vn -0.0007283420364956459 -0.000006444458449549754 0.0003390025328542413
vn 0.000040728889980389786 0.0000450235611993271 0.00013460112354139509
vn 0.00010522540542626063 0.000003482420126483219 0.0006458987383455794
vn 0.000255693310962636 -0.000003958520608190492 0.0005468689943307007
vn 0.00000004609739786873399 -0.0017088584406792682 0.0007519657844454416
vn 0.000000052127688833904316 -0.00019815339172168781 0.00008721015346679536
vn 0.00027520820902182463 -0.0000020076440530093653 0.0000023864789211425993
vn 0.00010716991366644014 0.000023177281136313917 0.000005237998451485352
vn 0.0005556553021202097 0.0000008184728121933818 0.00009944786652363559
vn 0.00032864277691957113 -0.0000007637325460919212 0.000010050839986682987
vn 0.0003092932185773121 0.0000002737879161238543 0.0000008125075760673876
vn -0.00022061344401946452 0.00013099853969089485 -0.00014297151113726677
vn -0.0006081153546848706 0.00030395718882143347 -0.00030022383635750985
vn -0.0000000000000032096721114260873 0.0000000000000013924001925416651 -0.000000000000001401819198915133
vn -0.000000000000000160638394100907 0.0000000000000006713447966217572 0.000000000000000006139560481762634
vn -0.0000000006567474715956303 0.00008397114686897224 0.0000000001498683483367773
vn -0.0000000015324105876254625 0.0007371762330014508 0.0000000003496929653583025
vn -0.00000000401137924147014 0.0032273392375111714 -0.0000000005881635659610071
vn -0.0000000009157446983286984 0.0006405298944966571 -0.00000000032171101708738427
vn -0.000000000032126415149325773 0.00018094113859668453 -0.000000000020135835519724365
vn -0.00000015645424866809994 -0.00005373863301372261 0.000023120629641936397
vn -0.00000009969136982608286 -0.00018007930954411173 0.00007857836308033963
vn -0.00000000000000011385789166442167 -0.00000000000000032298987790621734 -0.00000000000000044186039333840376
vn -0.00004941229925492568 -0.00014019496368300422 -0.00004990227127926749
vn -0.00007409732931407104 -0.0001789064195918383 -0.00005661359483433166
vn 0.0000337309314564046 -0.00020528069813009636 -0.00007355462794062075
vn 0.0000000000000001952325843079755 -0.00000000000000010634259101272234 -0.00000000000000004120097461056603
vn -0.0002090926186468956 -0.00000010460780685893923 0.0004504722755100984
vn -0.00028211915262232846 -0.000007982437182364555 0.0006957556297919583
vn -0.00011281944569052767 0.000001646316690083337 0.00048744042395742083
vn -0.000030617078499606766 0.00001729421197183209 0.00009145523837660993
vn -0.00005168976877634141 0.000014642724636359685 0.000059766412467964836
vn -0.0004342334360778467 -0.0000028947586088174884 0.0004084694996002761
vn -0.0005036892083936155 -0.000007873743925299466 0.0005058777409914193
vn -0.0001529198867693514 0.0000012000291462764788 0.0002560942316520654
vn -0.0001923594204527042 -0.0000016308331396424768 0.00009003524468198758
vn -0.0003045001334243194 -0.0000005278089929557313 0.00016921711162254312
vn -0.00007530673223854457 0.000009182003267937402 0.00003219331634918254
vn -0.00003821742967602427 0.0000031569106795362588 0.000015486848475632436
vn 0.0000000000000002491949668144489 -0.0000000000000000007265019786578232 0.00000000000000028203069882572354
vn 0.0004390622401478887 -0.000013283184159677994 0.0008792178265927401
vn 0.00000000000000009672777444465208 -0.00000000000000003187554387107383 0.00000000000000020643886990481808
vn 0.000000006879758961860481 -0.00011901236075578168 0.000052400734261879115
vn 0.00000000000000000010302038220980428 -0.000000000000000001777075123339522 0.000000000000000004612094397799665
vn -0.0000000000000000013410893155684278 -0.000000000000000001997332227356768 0.00000000000000000417008350984432
vn 0.000000010671328705032878 -0.0002949748518403639 0.00012985162936729317
vn 0.0007922993271698341 -0.00001010190077721326 0.0002507031652310092
vn 0.000014174177486282331 0.00018132907616505127 -0.00019947857687203054
vn 0.000021512340988462652 0.00013926330035338147 -0.00016835781408846702
vn -0.0000000050513809088816275 -0.00000001009939340030737 -0.0015267228571435164
vn -0.0000000356798217152067 -0.000000016412330633430757 -0.002605776175771133
vn 0.0005898722809295616 0.0003245015379615044 -0.0003203563208517246
vn -0.00024598898237115306 -0.00020079728727040333 -0.00007935944691084294
vn -0.0003490820018024429 -0.0002273271993193905 -0.00010593633980415832
vn -0.0001244708077420284 -0.00016048221699849297 -0.00007368757704129336
vn 0.000000039652832128814035 -0.000050622982485037815 0.000022246427818117975
vn -0.000000007228436515663425 -0.0010295048911075368 0.00045296220258706296
vn -0.000000013025669431766962 -0.00026710984570854385 0.00011725945228136165
vn 0.000044705048978241194 -0.00012007764750611021 -0.00003417219592271105
vn 0.0000000000000000044042048847109946 -0.000000000000000000678006860885294 0.000000000000000003656834793560106
vn 0.000000046338755057743044 -0.0000646885267485681 0.000028485982980441574
vn 0.0000000000000000017800099601528287 -0.0000000000000000017346473753604418 0.0000000000000000013167265717820451
vn 0.00000000000000000454009659728305 -0.0000000000000000028324781756183803 0.000000000000000002659683454378503
vn 0.0000980696357495445 0.000031463550740796575 0.00006971565788283108
vn 0.0004991293618541474 0.0000021841439092889262 0.00044898600380705343
vn 0.0006548705612843617 -0.000008572037586420465 0.0005031734810359231
vn -0.000000007989570606334443 0.00000000040360076787786695 -0.0003777726322055803
vn -0.00000004076929241979841 0.000000024768055273080916 -0.00017436565316668708
vn -0.00000009970437575654046 0.00000008785002508914849 -0.00007394679310508817
vn -0.00017656633884266298 0.00024172361804292004 -0.0002654787254165097
vn -0.00016095792217973658 0.00025707187706836 -0.0002666787202464799
vn -0.00003237504062614394 0.00011976543057678866 -0.00016396963416643185
vn 0.0004420270478111865 0.00009849734367539203 -0.00011174616849253588
vn 0.0007194908583478392 0.000028096072489841915 -0.000022107494256021524
vn 0.0016114444527990678 0.000002999009705475829 -0.0000009283633968914722
vn 0.0006148506851992642 -0.000009982247764832502 -0.0000017067180175003633
vn 0.00043114150832488697 -0.00001979758416138864 -0.000007159217250366277
vn 0.00007834379704685327 0.0001344297610083587 -0.00016181134742833335
vn 0.00018502497941707928 0.00027730024369887463 -0.00030096447566252497
vn 0.00024924669654002103 0.0001734107596498357 -0.00019771041841412133
vn -0.00000010454482435195869 -0.00007181705041148254 0.0000315485151816128
vn -0.000000016847025107965576 -0.0018103530186976645 0.0007965336843653775
vn -0.000000024341488824493893 -0.0026189583973348614 0.0011523107260700423
vn -0.00000002445972312073528 -0.0001601082267654839 0.00007045678813709909
vn -0.0006894404816444881 -0.00011966537796625947 -0.0000694468595731303
vn -0.0003272220694841049 -0.00008635921217425945 -0.00003967360310441767
vn -0.0000000000000000043228478457560805 -0.000000000000000002815008948261873 -0.000000000000000004157659903278635
vn -0.000000017691755483532515 -0.000000008771841920583051 -0.00008552834927208113
vn -0.000000033832263690551375 -0.000000025941985435740708 -0.000512436201565093
vn -0.000000005205402165260673 -0.000000005799661997864278 -0.00005507847854051199
vn -0.00000000000000016589614349861976 -0.0000000000000002138920563235179 -0.0000000000000001292130128405228
vn -0.0000000000000000027981450103186012 -0.0000000000000000036076828943816385 -0.000000000000000002303929616531697
vn 0.0003095394463275004 -0.00008630156420119596 -0.00004523943447136328
vn 0.00000000000000026985990182920927 -0.00000000000000011523672378377343 -0.00000000000000005334837687786896
vn 0.0003174866599713137 -0.00016181892517841417 -0.00007188938752124472
vn 0.0002085539493225942 -0.00011855338755828465 -0.00005574895114850482
vn 0.00045140904815355097 0.000002339266302442797 0.000247459976229432
vn 0.00010126467993743884 0.0000003714100103029168 0.000052612843257202594
vn 0.000042267717427436496 0.0000006135513217480769 0.0000231650926485473
vn 0.00000001681355091785103 -0.000000006905876094782293 -0.000020491724157010606
vn 0.000000000000000004140589868115864 -0.0000000000000000023534769080430107 -0.0000000000000000031035287187397564
vn 0.000000000000000014902876241606932 -0.000000000000000014532217643097705 -0.000000000000000006202789308303364
vn 0.0002006393515729958 -0.00021199979996744278 -0.00008949569896454687
vn 0.00017765794489975535 -0.000213890262396694 -0.00010249642493680375
vn 0.0000000000000000042736628852024845 -0.00000000000000000019629740398432218 -0.000000000000000002707055703549721
vn 0.000000004282752365358099 -0.000000001326533549868938 -0.00005405020941580492
vn 0.000000010934643749076946 -0.0000000035399997971044705 -0.0002683801590012113
vn 0.000000043374114172045407 -0.0000000019776098589255436 -0.002217068503498309
vn 0.000000049477432335762576 0.000000046337611891612165 -0.0004102487693703841
vn 0.00000011699629568062026 0.00000009517304078393478 -0.00024756515388935503
vn 0.000000048303737928358234 0.00000003461475062289669 -0.00007341821895591919
vn 0.0000000000000000059551577798999645 0.0000000000000000013282634665805004 -0.000000000000000005421010862427522
vn -0.000000000000000037690744345692336 -0.000000000000000008415950619073019 0.000000000000000006330758368978009
vn -0.00000000000000000574907731081008 -0.0000000000000000019094769609066175 0.000000000000000001241015764290232
vn -0.0007284984707919285 -0.000004256829956966763 0.00005265540181476333
vn -0.0030063440838633136 0.000001913842654812691 0.000012864248831280504
vn -0.0000000000000003714476642935338 -0.000000000000000016912706857826615 -0.00000000000000000874730924629516
f 12//1 32//1 17//1
f 52//2 59//2 58//2
f 15//3 12//3 17//3
f 15//4 17//4 14//4
f 41//5 32//5 12//5
f 33//6 32//6 31//6
f 1//7 37//7 61//7
f 63//8 58//8 59//8
f 54//9 50//9 56//9
f 54//10 56//10 13//10
f 4//11 28//11 64//11
f 4//12 64//12 19//12
f 24//13 23//13 14//13
f 6//14 14//14 17//14
f 6//15 17//15 26//15
f 38//16 2//16 37//16
f 38//17 37//17 1//17
f 38//18 28//18 2//18
f 27//19 2//19 28//19
f 27//20 28//20 4//20
f 20//21 15//21 14//21
f 20//22 14//22 23//22
f 20//23 23//23 15//23
f 21//24 19//24 54//24
f 21//25 54//25 13//25
f 45//26 16//26 56//26
f 18//27 41//27 12//27
f 18//28 12//28 56//28
f 18//29 56//29 16//29
f 18//30 16//30 45//30
f 39//31 61//31 33//31
f 40//32 33//32 61//32
f 40//33 61//33 37//33
f 40//34 37//34 2//34
f 40//35 2//35 26//35
f 40//36 26//36 17//36
f 40//37 17//37 32//37
f 40//38 32//38 33//38
f 10//39 32//39 41//39
f 60//40 52//40 58//40
f 60//41 58//41 63//41
f 69//42 67//42 59//42
f 69//43 59//43 52//43
f 69//44 52//44 60//44
f 46//45 63//45 59//45
f 47//46 54//46 55//46
f 5//47 6//47 19//47
f 5//48 19//48 24//48
f 5//49 24//49 14//49
f 5//50 14//50 6//50
f 3//51 6//51 26//51
f 3//52 26//52 4//52
f 3//53 4//53 19//53
f 3//54 19//54 6//54
f 29//55 27//55 4//55
f 29//56 4//56 26//56
f 29//57 26//57 2//57
f 29//58 2//58 27//58
f 9//59 21//59 15//59
f 9//60 15//60 23//60
f 9//61 23//61 21//61
f 57//62 21//62 23//62
f 57//63 23//63 24//63
f 57//64 24//64 19//64
f 57//65 19//65 21//65
f 42//66 56//66 12//66
f 35//67 31//67 32//67
f 35//68 32//68 36//68
f 35//69 46//69 59//69
f 35//70 59//70 1//70
f 30//71 10//71 41//71
f 68//72 60//72 34//72
f 68//73 34//73 66//73
f 68//74 69//74 60//74
f 51//75 55//75 54//75
f 51//76 54//76 60//76
f 51//77 60//77 63//77
f 51//78 63//78 46//78
f 11//79 42//79 21//79
f 11//80 21//80 13//80
f 11//81 13//81 56//81
f 11//82 56//82 42//82
f 7//83 12//83 15//83
f 7//84 15//84 21//84
f 7//85 21//85 42//85
f 8//86 35//86 1//86
f 8//87 1//87 61//87
f 8//88 61//88 39//88
f 8//89 39//89 33//89
f 8//90 33//90 31//90
f 8//91 31//91 35//91
f 49//92 30//92 41//92
f 49//93 41//93 18//93
f 49//94 18//94 45//94
f 49//95 45//95 56//95
f 49//96 56//96 50//96
f 43//97 36//97 32//97
f 43//98 32//98 10//98
f 43//99 10//99 30//99
f 25//100 34//100 60//100
f 25//101 60//101 54//101
f 25//102 54//102 19//102
f 25//103 19//103 64//103
f 25//104 1//104 66//104
f 25//105 66//105 34//105
f 65//106 68//106 66//106
f 65//107 66//107 1//107
f 65//108 1//108 59//108
f 65//109 59//109 67//109
f 65//110 67//110 69//110
f 65//111 69//111 68//111
f 53//112 50//112 54//112
f 53//113 54//113 47//113
f 53//114 47//114 55//114
f 53//115 55//115 70//115
f 22//116 7//116 42//116
f 22//117 42//117 12//117
f 22//118 12//118 7//118
f 48//119 50//119 53//119
f 48//120 53//120 70//120
f 48//121 70//121 55//121
f 48//122 55//122 51//122
f 48//123 51//123 46//123
f 44//124 49//124 50//124
f 44//125 50//125 48//125
f 44//126 48//126 46//126
f 44//127 46//127 35//127
f 44//128 35//128 36//128
f 44//129 36//129 43//129
f 44//130 43//130 30//130
f 44//131 30//131 49//131
f 62//132 25//132 64//132
f 62//133 64//133 28//133
f 62//134 28//134 38//134
f 62//135 38//135 1//135
f 62//136 1//136 25//136
