v -0.022602893412113655 0.053007084876298606 0.07051195204258004
v 0.028664849698543233 0.049540497362613456 0.07531654834747356
v 0.02376479841768712 0.05249787122011146 0.07051039487123553
v -0.04235960170626708 -0.03862662985920972 0.0704982951283459
v 0.054746095091104105 0.017993947491049416 0.07051065564155617
v -0.05710514634847703 0.005051975604146174 0.070498332381249
v 0.05696637555956797 -0.0061695380136374545 0.07049800455570249
v 0.055843010544776556 0.012488625943660427 0.07539990544319197
v 0.05013310909271236 -0.02726945281028756 0.3496024012565607
v 0.04982161521912667 0.02782351896166905 0.07531777024268224
v 0.022454574704169637 -0.05314681679010467 0.07050846517086054
v 0.0469114929437636 -0.03301646932959564 0.3544873297214505
v 0.03988151252269687 -0.04089033603668278 0.07526957988739019
v 0.029789291322231157 -0.0493338741362096 0.35449633002281167
v 0.026434302330016472 -0.05072297900915207 0.0753352344036104
v 0.05417296290397589 -0.017918420955539166 0.07533773779869107
v 0.0071525261737399775 -0.056789845228195926 0.07527416944503806
v -0.00022643245756690355 -0.05732634291052885 0.07049856334924731
v 0.043089821934699624 0.03776637464761711 0.07049897313118017
v 0.001351508311926963 0.057279676198959004 0.07049842923879662
v -0.009790988638997727 -0.05633856356144015 0.07516840100288419
v 0.013447165489196491 0.05544736236333841 0.07537055015564023
v 0.04842316731810532 -0.031879786401987596 0.07050099223852174
v -0.03702371567487755 -0.04363646358251656 0.07533437013626149
v 0.016638979315757634 -0.054704874753952054 0.349535286426544
v -0.0170316509902482 0.05461858212947828 0.0754722058773046
v -0.05447790026664868 0.018026575446127673 0.07509830594062838
v -0.023956133052707402 -0.05248466134071427 0.07050771266222014
v -0.04830250144006606 -0.030598122626537987 0.07520848512648412
v -0.057194679975510386 -0.001773223280907137 0.0753988325595859
v -0.013470429927110738 -0.05547103285789493 0.34971088171005243
v -0.048263296484947704 0.03243618085980375 0.07050217688083699
v -0.03523564338684136 0.045035727322101336 0.07545927166938854
v 0.0023424108512698455 -0.05769611150026323 0.3545043170452118
v -0.05485734343528823 -0.017857164144516543 0.07050669193267853
v 0.04026395082473841 -0.040588807314634774 0.3494968712329859
v -0.03960314393043527 -0.0412866473197937 0.34951901435852034
v 0.056240476667880915 -0.013137724250555 0.35448953509330705
v 0.055824458599090465 0.012274026870727522 0.3497325778007502
v 0.05141735076904294 0.02479586005210877 0.3497192859649653
v 0.034795418381692436 0.0452810525894154 0.34973546862602123
v -0.029750293120741848 -0.049928959459066447 0.35449114441871643
v 0.02008433640003204 0.0535816550254821 0.34959957003593395
v 0.05709312856197343 -0.0012900233268737732 0.34965369105339017
v 0.05527605861425395 0.016288546845316908 0.35448965430259655
v 0.04335537552833565 0.0374605581164359 0.35450172424316345
v -0.007674476131796879 0.05752694606780992 0.3544950187206262
v -0.055258244276046864 0.014925546944141221 0.34972593188285805
v 0.025381265208125135 0.05173692852258677 0.3544912040233606
v -0.05169898271560674 -0.025463465601205864 0.3544982075691223
v -0.057298317551612875 -0.002713193185627596 0.3544999957084654
v -0.0370600670576096 0.044338043779134716 0.35450410842895475
v -0.05371775850653655 0.02086927369236932 0.3544965386390685
v -0.05713628232479103 -0.005291834473610083 0.34988790750503523
v -0.040196903049945755 0.04060056805610659 0.349742472171783
v -0.04818822443485264 0.030543148517608514 0.34961178898811307
v -0.029217194765805917 0.04903647303581246 0.34970986843109086
v 0.00007343292236359995 0.05719824135303528 0.3495806753635405
v -0.017034471035003794 0.054584711790085 0.34967702627181974
vn -0.00000019813700645353928 0.00000022388018486268447 -0.0011389995424028988
vn 0.00000009395913214695567 0.0000006608922098613838 0.001262690395048812
vn 0.00000011537228838953626 0.00000041631945413289713 0.00036784559330484503
vn 0.0001011009749765075 0.00005691262353035751 0.000019716378660050417
vn 0.00110233485706907 0.000150355780336159 0.0000001921632848666436
vn 0.00006420853204186658 0.000005991898577972841 0.0000023454240155310405
vn 0.0037210790677228785 0.00034803615775479634 0.0000005238949204418136
vn 0.005184613670912339 0.0003142150625465651 -0.000007846454389232135
vn 0.00000013847358624319238 -0.0000001661000802803449 -0.001033398062945742
vn -0.00000001603468620107073 0.0000000302122726268882 -0.0066136654389298034
vn 0.000000042796513631943114 0.000000047974058881332 -0.0015630335265827688
vn 0.0000007383368255835871 -0.00000025640713966558007 0.0022687935913511255
vn 0.00000024470313856058887 0.00000011071879661314631 0.007934131778782721
vn -0.00000037713537570649425 -0.0000005157974851816014 0.0006146850427210405
vn 0.0000002418156570524132 -0.00000042663000350524146 -0.00037382125740115333
vn -0.0025004060666446457 -0.0036830105318072627 -0.0000178710286285524
vn -0.004039083694480741 0.001739843023161507 -0.000006712900449655124
vn -0.00012591673927689603 0.000040662175141757974 -0.00004277441788026203
vn -0.000000196628707616236 -0.0000001308425442901812 0.001048975048324679
vn -0.0000004294536139746287 -0.0000001578293501591975 0.003918928118577981
vn -0.0000002596474861161883 0.00000008469087497792267 0.0003087981398472278
vn -0.003582560853551178 -0.001846669554045175 -0.000009617561415917478
vn -0.0023812728712400283 -0.0027143256465983643 0.0000008601649414100974
vn -0.00012170665939870567 -0.00010920133148373644 0.000051367434440140896
vn -0.00006357077568630241 0.0001416646348079087 0.0000369887653077653
vn -0.0026908244609740693 0.0015437128180521619 0.00001119382445046188
vn -0.0001147122956894933 0.00008141050990196057 0.00003137305813909121
vn 0.00009213584890520076 0.002156022960304791 0.0000010510591864435079
vn 0.00002845288035180062 0.00016241770693990694 0.000033994951333579106
vn 0.0000679625573198968 0.00008557915164615164 0.000018361311529673337
vn 0.0022195843456226804 0.0024297856827400345 0.0000005410159903358699
vn 0.00000023088820672535344 0.0000004872349016512578 -0.00023777281270133096
vn 0.0024077628965172198 0.0010932638687975893 0.0000020720771713053362
vn 0.0015550575705657172 0.0003089098280992888 -0.0000010469392803200561
vn 0.00011821096500616793 0.000010869383011591425 -0.000014281942760400262
vn 0.000000532432843622458 0.000000173402962046177 -0.00023775585362359862
vn 0.00008149948465075349 -0.000085507466305761 0.000021184462001078364
vn 0.002156113099518898 -0.0018953550878586995 0.000003890761648586738
vn 0.00012439564187488096 -0.00004133850309698262 -0.000028553820350801527
vn 0.0015063828228151486 -0.0036981411799469214 0.000010746618074937083
vn 0.000041528322427653274 -0.00013627020243455043 0.000037451181555140596
vn 0.0010090774013269371 -0.0042419665523465485 -0.000002655099191597814
vn 0.0008307402133249642 -0.003968131312198237 0.0000014316959009007748
vn 0.00015413429775826742 -0.0020833989238108414 -0.000004106685608274021
vn 0.000019954458113868017 -0.00010824249092820413 -0.00001867224256582848
vn 0.0001013463632091296 -0.00012376967878896273 -0.00005233566059228886
vn 0.0024723764859972447 -0.0023441785487175472 -0.0000008704250481190805
vn 0.0023996434675365302 -0.0028743494876706764 -0.00000018603781280382743
vn -0.00002260082939922691 -0.0001107263402307664 -0.000022868827179152172
vn -0.00028226177780671824 -0.002728385068284556 -0.0000009992220791292943
vn -0.00011252322369212589 0.000017086764737661656 0.000015046590065672313
vn -0.0016471053536379887 0.0004267826640818088 0.00000013893871667644888
vn -0.0035774482012698268 0.0007251039160289962 -0.0000019774862795469707
vn -0.0049723601244318705 0.00057846199191711 0.000012434216675608738
vn -0.001900314624855101 0.000024481063485775676 -0.0000006231881539925112
vn -0.00011220918782277033 -0.00001101610703790776 -0.00001739284031082761
vn -0.0007240370069287775 -0.00004474623463489477 -0.0000004195523694413913
vn -0.004432079589895569 -0.0006418590342813762 -0.000007284914150795427
vn -0.005693504764691952 -0.0015295859663533333 0.000022351547467508268
vn -0.0001049216520627727 -0.000025824336402635493 0.000010752330442247114
vn -0.004428240284509949 -0.0033887145733735155 0.00001144078991763619
vn -0.002218094346477012 -0.0016437927450242283 0.0000032460773826828378
vn -0.00009776071587170657 -0.000058816836725116914 -0.00002309264240348738
vn -0.00000036598698070398175 -0.00000012334987597703596 -0.000239626846273977
vn -0.000000013900928747623913 -0.0000000005844708793729346 -0.00481701767002186
vn 0.000000003272045379341466 -0.000000038884049519480064 -0.003224887417463066
vn -0.00000017238816740357482 -0.00000039185435367722044 -0.0002397432028935341
vn -0.00006697129942781796 -0.0000889503039269881 -0.000018253441281707115
vn -0.001384983364738909 -0.0014754923216484743 -0.0000003841548889487399
vn -0.0008137680559832344 0.0025861550549743833 0.0000016170233185804327
vn -0.0000003199415699035297 0.0000005811587470678847 -0.0003831272831328395
vn -0.00004740134830172552 0.000037641833934955604 0.0000016811059273806362
vn -0.001004777982449612 0.0008375217773344982 0.000004537606022982042
vn -0.0028073698536836052 0.0022304448013114302 0.000015882860941926354
vn 0.0008361802136266979 0.0013837515401403386 -0.0000010518383878911166
vn 0.001791871295314058 0.002612577111719475 0.000000520874711040106
vn 0.0032515622382509484 0.003988019781843788 -0.000010739695393288864
vn 0.00007083561181752918 0.00009293499606665918 -0.000015033769304231473
vn 0.00002327560726384027 0.00010905552735166771 -0.000016770892150137942
vn 0.0005109695004342556 0.0033819101112260537 0.0000033268431978402774
vn 0.00009516315735473532 0.00005609057117206661 -0.00001720725051928526
vn 0.0028223247009015696 0.001910568163804492 -0.0000005816673875354356
vn 0.0034896919368788376 0.0022198497325414007 0.000004199402235979189
vn 0.002711803613789915 0.0013589556246760219 -0.0000007757512767677898
vn 0.0033028590862036757 -0.0007897923784875616 -0.000010936518514640617
vn 0.0033309496567851945 -0.00023863558259017465 0.000002658795776242717
vn 0.00014230227005195982 0.000004663673652593718 0.00003651650245074616
vn 0.0000003526494428120095 0.000000010219412427957629 0.00033036258223274607
vn 0.0000007850120569193774 -0.0000002348641081544942 0.0018047755971995977
vn 0.0000002149006417266421 -0.00000012172448648952832 0.0001881430773656446
vn 0.0038742172435006794 -0.0015950657338542624 -0.0000013772864117361897
vn 0.0027449825860353786 -0.003754158200589559 -0.000014308823730877548
vn 0.0006699363218721596 -0.001094791366653569 -0.0000026036900359624316
vn 0.000047619034473033544 -0.00006516786751631317 -0.000006537384759195128
vn -0.0006150370625730393 -0.00435893369820816 0.000005531078659488705
vn -0.000037202030917949055 -0.00015362600457484568 0.00005141194834494707
vn -0.0015616400964463995 -0.004595513810952381 0.000009494816615324245
vn -0.0010621031663161293 -0.0039060826160268068 -0.0000018915092522440316
vn -0.00043521827309359523 0.0015080897691071176 -0.0000011241389695406969
vn -0.0007569715051199457 0.005175861315153187 -0.000028564595064133127
vn -0.000021214929453589404 0.00011889525182830595 -0.000014798810551754082
vn -0.00010184875849140279 0.00012707370292831154 -0.00005531883931611891
vn -0.0035192968692712976 0.0036443431731918168 -0.000013897731636733015
vn -0.002220914503977692 0.003516077647488301 -0.000005729471650255195
vn -0.0012927555926615958 0.0021580030542649765 0.00000006417459258547034
vn -0.000026445281591459922 0.00005814932453218647 0.000013725537608627492
vn -0.0015489262963524102 0.003401173853638293 0.000011675143991901735
vn 0.0009917376719884477 0.005487445040430197 0.000013330587885658778
vn 0.00001765616109539389 0.00009778593183595658 0.000017757843686763355
vn 0.0005201446717948913 0.0014963189650518257 0.0000010487201664554449
vn 0.0008179036927299685 0.002861652046740425 -0.0000003265933536001757
vn 0.00009711892199138362 -0.00004557852300402143 0.00001042786259661458
vn 0.001626521557983565 -0.0009075105497349493 0.0000050256615253401524
vn 0.003921654035587134 -0.0016962181813150795 0.000003992568876965139
f 6//1 32//1 20//1
f 52//2 46//2 47//2
f 49//3 47//3 46//3
f 40//4 46//4 45//4
f 39//5 8//5 45//5
f 39//6 45//6 44//6
f 39//7 44//7 8//7
f 7//8 8//8 44//8
f 7//9 23//9 18//9
f 7//10 6//10 20//10
f 7//11 20//11 19//11
f 34//12 14//12 46//12
f 34//13 46//13 52//13
f 34//14 50//14 42//14
f 11//15 18//15 23//15
f 28//16 42//16 24//16
f 27//17 53//17 32//17
f 27//18 32//18 6//18
f 51//19 50//19 34//19
f 51//20 34//20 52//20
f 51//21 52//21 53//21
f 29//22 50//22 35//22
f 37//23 24//23 42//23
f 37//24 42//24 50//24
f 59//25 52//25 47//25
f 56//26 32//26 53//26
f 56//27 53//27 52//27
f 58//28 20//28 47//28
f 58//29 47//29 49//29
f 41//30 49//30 46//30
f 41//31 46//31 19//31
f 3//32 19//32 20//32
f 5//33 40//33 45//33
f 5//34 45//34 8//34
f 5//35 8//35 7//35
f 5//36 7//36 19//36
f 36//37 12//37 14//37
f 36//38 23//38 12//38
f 16//39 23//39 7//39
f 25//40 11//40 14//40
f 25//41 14//41 34//41
f 17//42 11//42 25//42
f 17//43 25//43 34//43
f 17//44 34//44 18//44
f 17//45 18//45 11//45
f 13//46 11//46 23//46
f 13//47 23//47 36//47
f 13//48 36//48 14//48
f 21//49 28//49 18//49
f 21//50 18//50 34//50
f 48//51 51//51 53//51
f 48//52 53//52 27//52
f 48//53 27//53 6//53
f 48//54 6//54 51//54
f 30//55 51//55 6//55
f 30//56 6//56 35//56
f 54//57 51//57 30//57
f 54//58 30//58 35//58
f 54//59 35//59 50//59
f 54//60 50//60 51//60
f 4//61 37//61 50//61
f 4//62 50//62 29//62
f 4//63 29//63 35//63
f 4//64 35//64 6//64
f 4//65 6//65 7//65
f 4//66 7//66 18//66
f 4//67 18//67 28//67
f 4//68 28//68 24//68
f 4//69 24//69 37//69
f 1//70 59//70 47//70
f 1//71 20//71 32//71
f 55//72 56//72 52//72
f 55//73 52//73 32//73
f 55//74 32//74 56//74
f 2//75 3//75 49//75
f 2//76 49//76 41//76
f 2//77 41//77 19//77
f 2//78 19//78 3//78
f 22//79 3//79 20//79
f 22//80 20//80 58//80
f 10//81 5//81 19//81
f 10//82 19//82 46//82
f 10//83 46//83 40//83
f 10//84 40//84 5//84
f 38//85 16//85 7//85
f 38//86 7//86 44//86
f 38//87 44//87 45//87
f 38//88 45//88 46//88
f 38//89 46//89 14//89
f 38//90 14//90 12//90
f 38//91 23//91 16//91
f 15//92 13//92 14//92
f 15//93 14//93 11//93
f 15//94 11//94 13//94
f 31//95 21//95 34//95
f 31//96 34//96 42//96
f 31//97 42//97 28//97
f 31//98 28//98 21//98
f 26//99 1//99 47//99
f 26//100 47//100 20//100
f 26//101 20//101 1//101
f 33//102 1//102 32//102
f 33//103 32//103 52//103
f 33//104 52//104 1//104
f 57//105 1//105 52//105
f 57//106 52//106 59//106
f 57//107 59//107 1//107
f 43//108 22//108 58//108
f 43//109 58//109 49//109
f 43//110 49//110 3//110
f 43//111 3//111 22//111
f 9//112 38//112 12//112
f 9//113 12//113 23//113
f 9//114 23//114 38//114
