v 0.0567194819450378 0.040387749671935626 0.41035139560699474
v 0.0567194819450333 0.04038774967195264 0.41035139560699646
v 0.021943664178234703 0.05439003184437672 0.35450053215026195
v -0.00007922912482175948 0.05807624384760849 0.3545025885105134
v 0.028490066528319934 0.05696344375610365 0.37447547912597634
v -0.05485941097139649 0.019353915005930956 0.35450398921966
v 0.04236883670091677 0.0399101898074147 0.354503273963927
v -0.05689254775643156 -0.012396077625454086 0.354504972696303
v 0.053612884134053254 0.023147705942393324 0.3545083999633791
v 0.05827114358542568 -0.0006152323912760552 0.35449582338336805
v 0.05457267910240015 -0.020105989649890677 0.3545156419277564
v -0.04320430755615234 0.051535606384277385 0.3862590789794922
v 0.010942459106445259 0.06015104055404653 0.3676314353942872
v -0.026039123535156267 0.0577330589294434 0.3728647232055664
v -0.01910803094506287 0.05514928698539724 0.3544992804527283
v 0.033188920468067325 -0.04792105779052472 0.35450932383538614
v 0.02194366417825217 0.05439003184437746 0.35450053215026867
v -0.053026437759399546 0.04466152191162097 0.4011168479919438
v -0.00807285308837892 0.06022614240646356 0.3674722909927368
v -0.009100198745726495 -0.06519996374847556 0.4828436076641093
v -0.037465848028659 0.04455091804266006 0.35451772809028537
v -0.047575078904628726 0.03347530588507639 0.35451051592826865
v -0.019108030945060434 0.05514928698539877 0.3544992804527297
v -0.054859410971403386 0.019353915005921655 0.35450398921966564
v 0.05797482654452019 0.03315281867981991 0.4259122610092174
v 0.04357147216796541 0.05148077011110418 0.3863887786865241
v -0.05801406130194663 0.0026386156678197955 0.3545145988464356
v 0.04236883670090721 0.03991018980743358 0.35450327396393344
v -0.058056704699993265 0.03577560186386095 0.4203521013259893
v -0.02326575852931705 -0.05393747985364132 0.35451877117157915
v 0.047755375504469934 -0.03314840793609963 0.35450562834741
v 0.041766166687008215 0.014786243438730971 0.46568012237549017
v -0.04112076759337873 -0.06519998610021804 0.467247009277342
v -0.05805670469997434 0.0357756018638709 0.42035210132597456
v -0.05755122005939049 -0.06519994884731418 0.4357948899269093
v 0.03498411178586561 -0.06519997864963001 0.3775466680526882
v -0.05506181716916998 0.02508449554443891 0.44342803955076726
v 0.007498852442931664 -0.05809815973044544 0.35450211167336926
v 0.03318892046806976 -0.04792105779052634 0.35450932383538725
v -0.022050857543930373 0.008656024932861845 0.47892951965330954
v 0.057974826544519346 0.03315281867982314 0.4259122610092181
v -0.0028093159198922233 -0.06519994139672754 0.36611151695252675
v 0.034984111785870894 -0.06519997864962919 0.377546668052691
v -0.0580352358519999 -0.059896700084227476 0.4262467920780167
v -0.007437467575071837 -0.059899497777242384 0.48305937647819575
v -0.05801406130194113 0.002638615667821783 0.3545145988464308
v 0.021642684936529676 0.008504867553713356 0.47925567626952653
v 0.04258346557616108 -0.05989979207517306 0.4652781486511318
v 0.03606224060057613 -0.0651999711990537 0.4711322784423911
v -0.03606247901917268 -0.06519996374847228 0.3788683414459287
v -0.04395580291748075 0.015706062316894615 0.46369552612304715
v -0.04226464405656455 -0.04016418382526271 0.35452818870544744
v -0.05160852521658023 -0.026776768267160814 0.35450065135955827
v -0.056892547756430635 -0.01239607762545614 0.35450497269630155
v -0.03569555282592237 -0.059899475425501364 0.4714558124542219
v 0.05301427841184906 -0.06519994139672963 0.4491186141967901
v -0.05478179454803454 -0.06519996374847563 0.4043208956718448
v -0.05755122005939092 -0.06519994884731374 0.4357948899269092
v -0.05093145370482794 -0.05989952012898499 0.45289325714111117
v -0.054781794548035556 -0.0651999637484731 0.40432089567184637
v 0.05538082122802495 0.024915456771860734 0.44379138946533303
v 0.05720670521257164 -0.0598994158208517 0.41362413764001377
v 0.04176616668701472 0.014786243438728733 0.4656801223754849
v 0.014977455139155696 -0.06519997119905514 0.48105573654175265
v 0.05823443830011211 -0.06519997119905142 0.4260005652904658
v 0.019477844238276896 -0.059899788349884235 0.47995758056641064
v -0.0005584955215345227 0.006683021783829616 0.48319318890570806
v 0.05538082122802316 0.024915456771862663 0.4437913894653311
v 0.05381232500073956 -0.06519991159440716 0.40271770954133596
v 0.05450797080992238 -0.05989983305336085 0.44510269165040034
v 0.05823443830011267 -0.06519997119905044 0.4260005652904667
vn -0.0011424808496943762 -0.000005850907882733158 0.000778716837275358
vn -0.00016671035362117507 -0.00007272822830367283 0.00008708868871150902
vn -0.00000000007624166259520647 -0.0004327781481022445 0.0000000007767493157891123
vn 0.0000000000000009204546463444035 0.0000000000000002568260911566723 -0.00000000000000013049399209130078
vn -0.000000000000000013967542694540748 -0.000000000000000011709383462843448 0.00000000000000000729657062648549
vn -0.0000000005689087254090829 -0.001525641804931388 -0.00000000041840936458126517
vn -0.0000000016411707902257877 -0.0006042362682386645 0.00000000014166368246924012
vn -0.000048421331045610523 -0.000356987108120063 -0.00026137253884692726
vn -0.00014367298615074493 -0.0006464547143501274 -0.0003745129278288034
vn 0.00000000000000002475820374118647 0.00000000000000014796037731337562 -0.00000000000000008074435773860343
vn 0.000000006175324565569721 0.00000011198307533757798 -0.00013460425635601858
vn 0.00007139876050564592 0.0000007815096978736721 0.0002963735162176207
vn 0.0006074119761549498 -0.00000746471414452729 0.0011459239780720184
vn 0.000052596142422700745 -0.00002150503951268941 0.0001117532182810622
vn 0.00000000014787108560800133 -0.0008478424146003245 0.0000000003141877419233734
vn 0.0000000006725150836505719 -0.0035695463420556484 0.00000000033039138612555996
vn 0.0016271024662273777 -0.00001178677401744734 0.0003206876480012219
vn -0.0001946914025796506 0.00033702157643188135 -0.00012089068918060865
vn -0.0000002807560327333557 0.000000318890978260384 -0.00009618270352693711
vn -0.0015032576184627886 -0.00000796494229826741 0.0005844670247541191
vn -0.0016336434853643244 0.00002140875540151127 0.0009050973512790062
vn -0.0003354799043759449 -0.0004624941847314189 -0.0003902276617695617
vn -0.0006372245460835128 -0.0006134919411020578 -0.0004686526638937258
vn 0.00000035903999310098183 -0.0000004316942897015293 -0.0010473067280385134
vn 0.00000007242510905204762 0.00000023877387931180744 -0.0022304775120782147
vn 0.001326776841057249 0.00026017023262575367 -0.00015413048885515237
vn -0.000000000000000004056917240433675 0.000000000000000026399700860201393 -0.000000000000000021914436411363258
vn -0.00000000000000002445018504892389 0.00000000000000005434880964900222 -0.000000000000000016873615853041017
vn 0.00004839144644208621 0.00028915785867525396 -0.00008632130594542073
vn -0.00030717500007521395 0.000028905670799420888 0.0015617879556703755
vn 0.000286934301744257 0.000013719036388870626 0.0016241914050710879
vn -0.0010970639640740887 0.00004415205171434309 0.0015979001022381387
vn -0.00035934230797716196 0.00000733545317640532 0.0004539598236476605
vn -0.00008266984216424426 -0.000050153376001525534 0.00016972524572447765
vn -0.0008203102963304921 -0.00004338289367880335 0.0018955813541884044
vn 0.0003336615910359374 -0.0000015466175682718649 0.00012206175186882071
vn 0.0001166761892079787 -0.000044316627509028016 0.00008984864256688394
vn 0.0000000013450298909462367 -0.00027698319209428955 0.0000000006607829825350026
vn 0.00000000000000002277871731515877 -0.000000000000000017629942138871607 0.0000000000000000051435600093117785
vn 0.00012252828357462432 -0.000013567496118625213 0.000027667457493005045
vn 0.0017577347699389977 0.000004870693701985529 0.00025726617582430507
vn 0.007026987747191636 0.000018566712813526485 0.0000203770246402021
vn 0.0010421530955384622 0.00009426318887779633 -0.00004024670720440683
vn 0.0004393522782351448 0.0000021632126845345885 0.0004913762706309049
vn 0.0012047610433826707 0.00000901425687506434 0.0007747042517322372
vn 0.0019185512858257974 0.000020727700757401454 0.001202918797843907
vn -0.0006580732233424636 0.0003395315785969124 -0.00015846488131878735
vn -0.00000000000000007949565013892285 -0.00000000000000002758107524797105 -0.000000000000000006994881830452125
vn -0.000000000000000013977262893917275 -0.000000000000000013847939822589223 -0.0000000000000000012298655764274512
vn -0.0001669145633802737 -0.000041676656043574736 -0.000014686945205158434
vn -0.0006659062409906062 -0.00046560182563213227 -0.0004015036475834162
vn -0.000716615560715567 -0.00026323758112161783 -0.0002486628355547993
vn -0.00000035967201590428935 0.000000006276824080657873 -0.008151744970537628
vn -0.00000011301488007329111 -0.0000004458278099048718 -0.00498792390157248
vn -0.0000005278745633011113 -0.0000010296252386024436 -0.0007176635466788711
vn -0.0000005053564561947855 -0.0000006111751995583752 -0.00012564993442318447
vn 0.0008067729612285235 -0.0007552876171865678 -0.0006034729508858505
vn 0.000000000000000022941184686451523 -0.000000000000000009158512929706658 -0.00000000000000000435724315300178
vn 0.000000000000000020609597872556883 -0.00000000000000008083151043225541 -0.00000000000000001541598836970552
vn 0.0000000030615480543948336 -0.0003270653749697636 -0.0000000014187747435021513
vn 0.0000000010293294683928817 -0.00577314022664789 0.00000000039379677994334894
vn -0.000000001346486176491536 -0.006272317643888961 -0.000000001663389690635874
vn -0.00000000021963316016294921 -0.0008623790688450122 -0.0000000020835258909779205
vn 0.00008120951395024968 -0.0005566346819194771 -0.00026840105599589963
vn 0.00000021899638594371128 0.0000001957805556325863 -0.0005974758482518056
vn 0.00000000000000009726095252683276 0.00000000000000013714490991505504 -0.0000000000000002681084228793516
vn 0.00000000000000009329170588477621 0.0000000000000001315499010937623 -0.0000000000000002470354650008222
vn 0.00000000000000010803530115822603 0.00000000000000007245273579145347 -0.00000000000000005193835814301508
vn 0.00000033262352838996164 0.00000016528989758594906 -0.0001891076068817622
vn 0.0000013161930012558452 0.00024789508227536326 -0.000040280656316643415
vn -0.00003795464769250045 0.00024682434157165934 -0.00006430698612412758
vn -0.000059719396936928403 0.0002925830644193338 -0.00006370053793356632
vn 0.00000002888622674699736 0.00035148401389051954 0.00016241739996264554
vn -0.0000000015556339528786174 0.0006183472569318779 0.00028587533779462766
vn 0.00000019390770940753282 0.00047174718014267243 0.00021827964901892372
vn 0.0010325840556417193 0.000659782039432548 -0.0002611338165267488
vn 0.0005345395692293131 0.00035851596282187426 -0.0001502593113755859
vn 0.00046172879602652704 0.0006512636375284889 -0.00025374507048073533
vn -0.000013657163066024567 0.0000012617735478800234 0.00007424707340807947
vn 0.000009476548437399013 -0.0000081679558689812 0.00012762279747225921
vn 0.0001326981260460299 -0.000016782378349035007 0.001528903838619139
vn 0.001051610125955222 0.00003228240711908279 0.0015737726267840816
vn 0.00000000000000043400612964594742 0.000000000000000005407458335271453 0.0000000000000005333190486456196
vn 0.00000000000000010239946735479883 0.00000000000000007066912345972868 0.00000000000000009639461587241947
vn 0.000000000000000022543689246946542 0.00000000000000006563774775304196 0.00000000000000004439650732011948
vn 0.00000000000000001848477188378162 0.0000000000000000370477026160893 0.000000000000000019750679218775602
vn 0.00000000000000006329030181884132 0.000000000000000013410225620930083 0.00000000000000001536178953140399
vn 0.00000000000000005513587262222839 0.000000000000000014009201164548988 0.0000000000000000020655074711670327
vn 0.00000000000000027720537568370576 0.00000000000000007223615529846054 0.000000000000000011222725914918419
vn 0.0000011737806602358201 0.00006280943493354328 0.000029108177243237238
vn -0.0002902709164729365 0.0004679831605827225 -0.00015545729131716303
vn -0.0003515045171026722 0.0003209220311539973 -0.00013416677915061066
vn -0.00048657807741216196 0.0003767784311570249 -0.00014734557155282965
vn -0.00000015134548309243693 0.0000000035891559517998482 -0.00019700558784217982
vn -0.00000000000000009454565875384739 0.000000000000000017788889649867284 -0.00000000000000008595012722378836
vn -0.00000000000000008001796454793353 0.00000000000000004128990562540458 -0.000000000000000029643061605136135
vn -0.0000003001203008498425 0.00000026763906174515396 -0.0002441138358688233
vn -0.00000033669857988664087 0.00000010402544162991603 -0.0017656022534271315
vn 0.0006291230796869566 -0.00032861574283662 -0.0002975021000776445
vn 0.00000045365400955852275 -0.00000017214390522372235 -0.00008463748878123143
vn 0.0002345780189012095 -0.0005918179928503464 -0.00046216649731421685
vn 0.00034025876565383566 -0.00033557907280736037 -0.00027821235653122166
vn 0.00000000000000006682137455362572 -0.000000000000000116825852925391 -0.00000000000000009283109191166666
vn 0.0001401739423410503 0.000223261025730826 -0.00007470245655291726
vn 0.00008128462068234831 0.00030570866383338493 -0.00006602451313086885
vn 0.00000045113733918058894 0.00010583210405460764 0.00004813436441929777
vn -0.000000000000000021679649466296207 -0.0000000000000000016097844618955727 -0.000000000000000011570470059493743
vn -0.00000000000000017852886887124207 -0.00000000000000004902019362022532 -0.000000000000000044395972347540873
vn -0.00000000000000020789666137675836 -0.00000000000000005374821055663419 -0.000000000000000048163231778535155
vn -0.0014219595111935874 -0.00020835333759002146 -0.00016060046332818327
vn -0.0010790734988286974 -0.00008044842252932518 -0.00007045255655465717
vn -0.006494157702811747 -0.000001664824977096946 -0.000003368379134408833
vn -0.0008822274889896708 0.0000026481367551836606 0.000046193050416563566
vn -0.002165005075623206 0.000034584882681921064 0.00029700622770739666
vn -0.0009009963663575591 0.0002697328265761678 -0.00011101636495172858
vn -0.0011008451326745853 0.00020769384652872855 -0.00010524840161969154
vn -0.0000003204164653386896 0.000000018468297550779626 -0.00006617563479222858
vn -0.00000000000000007262873418320158 -0.0000000000000000053633481019264506 -0.00000000000000008495740460960632
vn -0.00000000000000008070495205705786 0.000000000000000015176909701415866 -0.00000000000000008570659613311432
vn 0.0011512806940665364 -0.00021866287460023506 -0.0001985137368774032
vn 0.00042031350289543565 -0.00007394206948207285 -0.00006657043142041931
vn 0.00012341132856832533 -0.000030801404085970365 -0.000023439595174332243
vn 0.0007473084730376717 -0.00017190889181622208 -0.00014903566262010944
vn 0.00000000000000001131056329358771 -0.00000000000000002850413943179656 -0.00000000000000006649985214431052
vn 0.00000014415210201955498 -0.0000001999929712269562 -0.00023126608186294995
vn 0.000000000000000016394938116482723 -0.000000000000000016181009357741808 -0.00000000000000005963111948670274
vn -0.00000000000000007174969761798333 0.0000000000000004808737033884609 0.0000000000000002321012524693668
vn -0.00000026570796774922907 0.00019558285597958214 0.0000906482264182828
vn -0.00000016647044260724485 0.0007346223059570914 0.00034021028273367054
vn -0.000000055475476789301 0.0011054500576026236 0.0005118241154730138
vn 0.00000006563210225447034 0.0016215462507365957 0.0007506424895153115
vn 0.00000021982816573513269 0.002267308374746677 0.0010494039483259635
vn 0.00000029326534425763934 0.0028021215177318312 0.0012968900238003356
vn 0.0000007286478471465584 0.006234807413198733 0.002885252176471189
vn -0.00000004906434107444595 0.003738632223380064 0.0017286548311672804
vn -0.0000001947805686060267 0.00038627471096930994 0.000178476351283711
vn -0.0000001998087384898488 0.00011419261846526302 0.000052700183815123706
vn -0.00000000000000006020032562725763 0.00000000000000028971237301528285 0.00000000000000011808994537440554
f 59//1 33//1 51//1
f 59//2 58//2 33//2
f 20//3 33//3 64//3
f 2//4 1//4 9//4
f 35//5 33//5 58//5
f 57//6 50//6 33//6
f 57//7 33//7 35//7
f 30//8 38//8 42//8
f 30//9 42//9 50//9
f 4//10 17//10 3//10
f 4//11 3//11 15//11
f 66//12 47//12 64//12
f 49//13 47//13 66//13
f 49//14 66//14 64//14
f 49//15 64//15 33//15
f 49//16 33//16 65//16
f 61//17 70//17 71//17
f 21//18 14//18 15//18
f 21//19 15//19 22//19
f 37//20 58//20 59//20
f 37//21 59//21 51//21
f 52//22 30//22 50//22
f 52//23 50//23 57//23
f 10//24 31//24 38//24
f 10//25 15//25 3//25
f 10//26 9//26 1//26
f 23//27 4//27 15//27
f 23//28 15//28 14//28
f 13//29 17//29 4//29
f 67//30 40//30 20//30
f 67//31 64//31 47//31
f 55//32 40//32 51//32
f 55//33 51//33 33//33
f 55//34 33//34 20//34
f 55//35 20//35 40//35
f 56//36 70//36 61//36
f 56//37 48//37 49//37
f 56//38 49//38 65//38
f 56//39 65//39 71//39
f 56//40 71//40 70//40
f 25//41 61//41 71//41
f 25//42 71//42 10//42
f 25//43 10//43 1//43
f 63//44 49//44 48//44
f 63//45 48//45 56//45
f 63//46 56//46 61//46
f 18//47 22//47 24//47
f 60//48 57//48 35//48
f 60//49 35//49 58//49
f 60//50 58//50 44//50
f 53//51 52//51 57//51
f 53//52 57//52 54//52
f 53//53 15//53 10//53
f 53//54 10//54 38//54
f 53//55 38//55 30//55
f 53//56 30//56 52//56
f 69//57 43//57 31//57
f 69//58 71//58 65//58
f 36//59 43//59 69//59
f 36//60 69//60 65//60
f 36//61 65//61 33//61
f 36//62 33//62 50//62
f 36//63 50//63 42//63
f 36//64 42//64 38//64
f 7//65 10//65 3//65
f 7//66 3//66 17//66
f 7//67 17//67 28//67
f 7//68 28//68 9//68
f 7//69 9//69 10//69
f 19//70 13//70 4//70
f 19//71 4//71 23//71
f 19//72 23//72 14//72
f 26//73 13//73 19//73
f 26//74 19//74 14//74
f 26//75 68//75 2//75
f 26//76 2//76 9//76
f 26//77 9//77 28//77
f 26//78 28//78 17//78
f 45//79 67//79 20//79
f 45//80 20//80 64//80
f 45//81 64//81 67//81
f 32//82 47//82 49//82
f 32//83 49//83 63//83
f 32//84 63//84 61//84
f 32//85 61//85 68//85
f 41//86 68//86 61//86
f 41//87 61//87 25//87
f 41//88 25//88 1//88
f 41//89 1//89 2//89
f 41//90 2//90 68//90
f 12//91 14//91 21//91
f 12//92 21//92 22//92
f 12//93 22//93 18//93
f 6//94 53//94 54//94
f 6//95 27//95 24//95
f 6//96 24//96 22//96
f 6//97 22//97 15//97
f 6//98 15//98 53//98
f 11//99 69//99 31//99
f 11//100 31//100 10//100
f 39//101 36//101 38//101
f 39//102 31//102 43//102
f 39//103 43//103 36//103
f 5//104 26//104 17//104
f 5//105 17//105 13//105
f 5//106 13//106 26//106
f 8//107 27//107 54//107
f 8//108 54//108 57//108
f 8//109 57//109 60//109
f 8//110 60//110 44//110
f 8//111 44//111 27//111
f 29//112 27//112 44//112
f 29//113 44//113 58//113
f 29//114 58//114 37//114
f 29//115 18//115 24//115
f 29//116 24//116 27//116
f 46//117 6//117 54//117
f 46//118 54//118 27//118
f 46//119 27//119 6//119
f 62//120 11//120 10//120
f 62//121 10//121 71//121
f 62//122 71//122 69//122
f 62//123 69//123 11//123
f 16//124 39//124 38//124
f 16//125 38//125 31//125
f 16//126 31//126 39//126
f 34//127 29//127 37//127
f 34//128 37//128 51//128
f 34//129 51//129 40//129
f 34//130 40//130 67//130
f 34//131 67//131 47//131
f 34//132 47//132 32//132
f 34//133 32//133 68//133
f 34//134 68//134 26//134
f 34//135 26//135 14//135
f 34//136 14//136 12//136
f 34//137 12//137 18//137
f 34//138 18//138 29//138
