v 0.020487764850258827 0.08035796880722046 0.010864825919270519
v 0.019504204392433167 0.07182484120130539 0.00978035386651755
v 0.01905255950987339 0.08107589930295944 0.010999790392816067
v 0.020487764850258827 0.08035796880722046 0.010864825919270512
v 0.01855485886335373 0.07182483375072479 0.012363168410956853
v 0.01781044155359268 0.08032667636871338 0.011294241994619366
v 0.018395993858575814 0.08034468442201614 0.009760688059031972
v 0.01793418824672699 0.07182484865188599 0.010213529691100124
v 0.020414080470800403 0.07182483375072479 0.011122172698378565
v 0.018826138228178024 0.08033624291419983 0.012345021590590468
v 0.01839599385857582 0.08034468442201614 0.00976068805903197
vn 0.000011449919396236364 -0.00000033302476612658063 -0.000007764096010373673
vn -0.000000000009246138577001452 -0.00000362389087770614 -0.00000000001385228043382372
vn 0.00000940734271144541 0.000001182480841920702 -0.000017836282798389114
vn 0.0000007909013213097596 0.0000018669793242064643 -0.0000015208120056203756
vn 0.00000000000000000005929230630780102 -0.00000000000000000000050954325733266505 0
vn -0.0000036905902589673115 -0.0000005109256470854601 -0.000013376283158589297
vn -0.00000000002247087932394352 -0.000003643827003761683 -0.000000000018770707210791215
vn -0.00001827587415351153 -0.0000009367770548371365 0.000005276832807488141
vn -0.0000000000000000000001507536666377893 0.000000000000000000011529850838526443 0
vn 0.0000010656098358152694 0.0000019001241700153942 0.0000012241135422114136
vn -0.0000007900850567815713 0.0000016042657170270372 0.0000007491004649085057
vn -0.000008943788684323506 0.0000003034864864658042 0.000008642414776993708
vn 0.000010562622279872072 -0.0000003029175681262763 0.00001582459582655241
vn 0.000012625118484821293 0.0000003185469597544209 0.00001417728352073877
vn -0.0000011436712793050272 0.0000017324380661761578 -0.0000004163410897289861
vn -0.0000000000000000000012705494208814505 0.000000000000000000009740878893424454 -0.000000000000000000005082197683525802
vn -0.000000000000000000014779559121911724 -0.0000000000000000000023411150039811114 -0.0000000000000000000591182364876469
vn -0.000013057472879593365 0.00000044304135207727747 -0.000004980493253203792
f 4//1 9//1 2//1
f 5//2 2//2 9//2
f 11//3 4//3 2//3
f 11//4 3//4 4//4
f 1//5 9//5 4//5
f 8//6 11//6 2//6
f 8//7 2//7 5//7
f 6//8 8//8 5//8
f 10//9 1//9 4//9
f 10//10 4//10 3//10
f 10//11 3//11 6//11
f 10//12 6//12 5//12
f 10//13 5//13 9//13
f 10//14 9//14 1//14
f 7//15 6//15 3//15
f 7//16 3//16 11//16
f 7//17 11//17 8//17
f 7//18 8//18 6//18
