v 0.0019847468938678442 0.06544108688831321 0.042999975383281694
v -0.0003089308738708693 0.06600668281316746 0.00000000000041363657291015876
v 0.0010447482345625932 0.058689475059509374 0.04299998655915263
v -0.001793608069419861 0.05917897075414664 -0.000000000022509993001518236
v -0.0036079632118344446 0.06263557821512224 0.0429999828338623
v -0.0017938290257006966 0.06547062844038005 0.04299997910857204
v -0.002593549434095623 0.059880737215280554 0.0429999530315399
v 0.0035853665322065223 0.06353020668029778 0.00000000000490275832085163
v 0.0019847468938677722 0.0654410868883132 0.04299997538328171
v -0.0017936080694198441 0.059178970754146666 -0.00000000002251000904771039
v -0.0037347385659814 0.06292423605918883 -0.0000000000861377592517587
v 0.0010447482345626318 0.0586894750595094 0.0429999865591526
v 0.0019847378134731663 0.05920857191085752 0.00000000000008526729669555699
v 0.003607970895246023 0.06201404333114553 0.042999979108572096
v -0.003734738565981394 0.06292423605918884 -0.00000000008613775318022654
vn 0.0000000000000000000004100230898848789 0.00000000000000000005243800664002534 0.00000000000000000005455421575909728
vn -0.00012190711018809423 0.00007800773949061436 0.0000008830785593483439
vn -0.0001610462323364279 -0.00008346852027482921 -0.0000016337723600171224
vn -0.00011845812454318238 -0.00004361977889478204 0.000000056427449299946166
vn -0.0000000000000000005963111948670274 0.0000000000000000002422514229147299 0.0000000000000000000033881317890172014
vn -0.00000000000000000006009724498184238 -0.00000000000000000003114775401762997 -0.00000000000000000011722294084919382
vn 0.00010648841274711745 0.00016745469258459817 -0.0000034776395052508742
vn 0.0000000000002281799447865059 0.00000000000032167800843746697 -0.000020487895383703747
vn -0.00000000000000000001871517341537143 0.00000000000000000002079990110893732 -0.00000000000000000003016425579186898
vn -0.00013254514606948753 0.00014730965931784095 -0.0000027407002944121225
vn 0.0000012702881186550724 0.00016247868006836094 0.000002069388340660153
vn 0.0000000000000000000004749864756720231 -0.00000000000000000006062806443875352 -0.00000000000000000010436950409537883
vn 0.00000000000008650875955549278 -0.00000000000019654726803084854 -0.000014208367453673033
vn 0.0000000000003905246081415351 -0.00000000000011045752638866944 -0.00003066488672943015
vn 0.00014295638712748246 -0.0001102185329538146 0.0000017944987172496691
vn 0.0001858302047869261 -0.00006882700145815843 -0.000002524502400196595
vn 0.000147362795697426 0.0000697985980556284 0.0000023836066016354556
vn 0.000000000000000000047559731595720955 0.000000000000000000022527026443149605 0.00000000000000000026924313409595207
vn 0.000000000012876783094803554 0.00000000002012327323690083 0.000012901391704073112
vn 0.0000000000000000000922750992575667 -0.00000000000000000007114343280378504 0.00000000000000000005717662710126865
vn 0.000000000025753565546064055 0.000000000040246545484415086 0.000026818649907477007
vn 0.000000000004138994439879217 0.000000000024090877165750134 0.000020349431270775105
vn -0.000000000127865620992151 -0.00000000014244059237476044 0.000008814498843534931
vn -0.000051224240301781115 -0.00015644665576908674 0.0000016002954049118636
vn 0.000001272849352430008 -0.000162468822201147 -0.00000193350267228208
vn 0.000000000000000001179069862577986 -0.000000000000000001633079522306291 0.00000000000000000000603510974918689
f 1//1 6//1 9//1
f 5//2 6//2 15//2
f 11//3 4//3 7//3
f 11//4 7//4 5//4
f 11//5 5//5 15//5
f 11//6 10//6 4//6
f 2//7 1//7 8//7
f 2//8 8//8 11//8
f 2//9 11//9 15//9
f 2//10 15//10 6//10
f 2//11 6//11 1//11
f 13//12 4//12 10//12
f 13//13 10//13 11//13
f 13//14 11//14 8//14
f 14//15 12//15 13//15
f 14//16 13//16 8//16
f 14//17 8//17 1//17
f 14//18 1//18 9//18
f 14//19 9//19 6//19
f 3//20 12//20 14//20
f 3//21 14//21 6//21
f 3//22 6//22 5//22
f 3//23 5//23 7//23
f 3//24 7//24 4//24
f 3//25 4//25 13//25
f 3//26 13//26 12//26
