v 0.03758546710014374 -0.0241224765777588 0.09199333190917965
v -0.021574333310127414 0.03104781359434127 0.049149841070175136
v -0.011988162994378096 0.04749989509582484 0.13031029701233152
v 0.03659966588021135 0.0474999435245991 0.08658069372177411
v 0.034840345382691484 0.04213678091764483 0.10865020751953147
v -0.009929656982422028 -0.007019162178039543 0.13086462020874048
v 0.03087949752808549 0.04749992489814747 0.11588931083679514
v 0.03717438131571721 0.047499950975179527 0.1016229391098053
v 0.005878269672401911 0.04749996587634068 0.13201311230659774
v 0.037545528262854296 0.042238943278789944 0.09430753439664852
v -0.027134776115417394 0.047499891370534966 0.12099909782409696
v 0.019270896911622065 0.04225072637200384 0.1268651485443117
v 0.005878269672393866 0.047499965876341074 0.13201311230659496
v 0.0013458132743835553 -0.006412841379642398 0.13224284350872045
v 0.022219181060800286 0.047499988228082574 0.1250092983245879
v 0.016226530075073364 -0.007944107055664066 0.12876343727111816
v 0.03350102901458768 -0.030596017837524477 0.07727825641632076
v 0.029018163681031644 0.04225051403045686 0.11871802806854276
v 0.03274226188659698 -0.014872789382934607 0.11301517486572257
v 0.03047049045563426 0.047499947249889395 0.07224202156067148
v 0.014391839504246792 0.04749994724988913 0.05967216193676182
v -0.03489506244659445 0.04224664717912673 0.10898923873901378
v -0.03687493503093734 0.04749988764524466 0.10306438803672793
v 0.021919766440987764 0.030773552134632953 0.04914989694952963
v -0.03639546036720296 0.04749989509582527 0.0851240307092667
v -0.030879169702530043 0.04749989137053492 0.0734098553657532
v -0.019372940063476684 0.04225018247962001 0.12679982185363778
v -0.036914467811584764 -0.019777059555053544 0.10186958312988266
v -0.016167998313903836 -0.037904828786850094 0.060666561126708984
v -0.031532526016235456 -0.013672709465026878 0.11574387550354007
v -0.03708586841794998 0.0058669350123071555 0.049149978905518844
v 0.014907836914062663 0.040027320384979186 0.12907791137695315
v -0.019639492034912266 -0.008827924728393468 0.12675881385803217
v -0.011988162994384812 0.04749989509582534 0.1303102970123291
v 0.02703332901001002 -0.011479377746582064 0.12072658538818351
v -0.011305809020996158 0.04220588877797124 0.13050794601440446
v -0.005982398986816422 0.04216498136520383 0.13168507814407365
v -0.03748428449007272 -0.0039461408731016195 0.04914985969630065
v -0.03432242199762292 -0.015529371797755294 0.049150984734212734
v -0.03748428449034709 -0.003946140874177252 0.04914985969662656
v 0.037517070769775805 0.0015813777013337655 0.04915006831083318
v -0.003210783004760775 0.0474999286234378 0.05716572701931005
v -0.03747890144586585 0.04223951697349556 0.0972964763641356
v -0.020276486873626175 0.04749989137053492 0.06272119283676117
v 0.007816098630428394 0.03677839785814283 0.04915086179971701
v 0.008864641189575197 -0.039097338914871264 0.05796906352043148
v -0.006161248311400423 0.03721443191170716 0.04915051162242896
v 0.014391839504241756 0.04749994724988958 0.059672161936759956
v 0.021919766441609947 0.030773552134575506 0.04914989694964135
v 0.036810040473938294 -0.019619941711425816 0.10222768783569332
v 0.03452886268475634 -0.014721990562370838 0.0491504892701386
v 0.031920790672188636 0.01999065838944083 0.049152076242685784
v 0.03607261925895346 0.010527902285203923 0.04914999007962715
v 0.037517070770264074 0.0015813776990398392 0.049150068312883405
v 0.03691342472988503 -0.006884954868087082 0.04915027692765015
v -0.021574333310357605 0.03104781359417251 0.049149841070221904
v -0.036914467811584625 -0.019777059555053825 0.10186958312988269
v -0.034763637929959956 0.014271115885408768 0.04915178567133839
v -0.03073688037686911 0.021609714255600185 0.04915348440382274
v -0.037085868418216913 0.005866935010999448 0.04914997890591614
v 0.03452886268496533 -0.014721990562975493 0.049150489270687006
v 0.03691342473030112 -0.006884954869747249 0.04915027692914001
v -0.03476437926292436 -0.02941769361496008 0.07995915412902874
v -0.03752307221293471 -0.023319482803345087 0.09381425380706823
v -0.03751464188098919 0.0013620816171169888 0.08433604240417594
v 0.03058921173214922 -0.021803569048643136 0.04915197193622581
v 0.02575255557894714 -0.027369074523448972 0.04915287345647808
v 0.017962252721190487 -0.03294658288359646 0.049150042235851274
v 0.006047206930816167 -0.03724887967109684 0.04915000870823857
v -0.01616799831380121 -0.037904828786886495 0.06066656112665149
v -0.027484240010380818 -0.025778718292713266 0.04915001988410945
v -0.03432242199778569 -0.015529371798038564 0.049150984734296785
v -0.004255175590515144 -0.039394237101078144 0.05728599429130551
v -0.026850461959838874 -0.03447067737579354 0.06847548484802236
v 0.022832632064819374 -0.03612077236175541 0.06472587585449215
v -0.027484240010416394 -0.025778718292657772 0.04915001988407425
v -0.026850461959944928 -0.03447067737572637 0.0684754848481208
v -0.019458340480923708 -0.03222288191318521 0.0492935329675674
v -0.008217042312027193 -0.03666475042700735 0.049150027334689525
vn -0.00008367831441741239 0.0002091755280521611 -0.0002455739495616834
vn -0.000057141023987566166 0.0001531765015649551 -0.00017552913111318637
vn -0.00001891085498258823 0.000004211566207762347 0.0006152613586706861
vn -0.00029650528390411535 0.000001227897087118426 0.00039785921424638796
vn -0.00000004772424234424609 -0.00043201618021980893 0.0001900833292651828
vn -0.000004752507068954873 -0.00011605353429622431 -0.000036619836010745226
vn -0.001369524042022384 0.000001651014436910822 -0.0000014306504551312788
vn -0.00038176237236254705 -0.0000004936004491800287 0.00004042505952800854
vn -0.000094372972500367 0.000013600940807269045 -0.000002522209959054637
vn -0.0000000004969011310351799 0.00023450499969657264 -0.0000000003085706144670626
vn -0.0000000003981837071153616 0.0001235067074447646 -0.0000000003949807136982798
vn 0.0000000011413106016618495 0.00006614203261535145 0.0000000006244899318627293
vn -0.00000000394107773110394 0.002962345683051127 -0.0000000011253549244197696
vn 0.000007489063044378675 0.0000015733322697711565 0.0000163476117922388
vn 0.00005233708458185395 0.00001527755100017488 0.0001221100396378092
vn 0.00007651279442554796 0.000010937613739025253 0.000033760471380757204
vn 0.00046842613128177764 -0.0000011488156311318525 0.00015470621945800172
vn -0.000048881106772923824 0.000015589321151310666 0.00007951533848382705
vn -0.00017909314631480748 0.0000006328891686270975 0.0003758011135950344
vn -0.0000000006527079992120969 0.00014056602886469165 0.0000000010055274386729605
vn -0.0000000000000000006736887712925347 0.000000000000000035887091909270197 0.000000000000000007067046514668231
vn 0.000000000000000002770065123654259 0.0000000000000001017053584927135 0.00000000000000000646328730801889
vn -0.0000000015437861972368736 0.0010622876689886191 -0.00000000021172665069837248
vn -0.0000000016191786275282843 0.0007808879491066916 0.00000000028102636936587695
vn -0.0000000012952096086460623 0.00048480114404415164 0.0000000006027152121959078
vn -0.00009421536527487711 0.000022200547174836146 0.000051167404337028845
vn -0.00040488246535309066 -0.000002131335655519114 0.00013340745852318957
vn -0.0006483520063014167 -0.000014059593581806492 0.000706221668868242
vn -0.0007070673497731146 0.000012034326658749204 0.00045161444398502233
vn -0.0008170741709694425 -0.00001029975163646801 0.0003214808222535943
vn -0.0000000000000000040684555827982225 -0.0000000000000000017760659629922274 0.0000000000000000023596100386948113
vn -0.00000002108001240054623 -0.00010572567356348475 0.0000465248935910267
vn -0.000000042469160626510414 -0.00003065445485805884 0.000013483855981323416
vn -0.000000000000000002362072555378226 -0.0000000000000000011010093451591706 0.0000000000000000006626431571545274
vn -0.0005157638271348884 -0.000001763485899530301 0.000039743024260125696
vn -0.0007073287596157087 0.000000448016160170773 0.0000005375195027763882
vn -0.0009187624901526032 0.000000008897433974189466 -0.0000007940179704124817
vn -0.0005407924745838909 -0.00012267794138622355 -0.000053681637507376936
vn 0.0000000000000126132772257524 -0.0000000000000008994329903110985 -0.000000000000004524915974483711
vn -0.00038924761211465764 0.00017931790533070652 -0.0001832995984778857
vn 0.0000000010074034996872516 0.0005961771054110968 -0.00000000030545185617945947
vn 0.00000000016286816080853948 0.00008395590454713505 -0.0000000000478068962625324
vn 0.0005301301178986909 0.00022186220017224176 -0.0002266081285243534
vn 0.00021024843861353778 0.00026380881080761867 -0.00026893786873412215
vn 0.00000000000000003596669844023595 0.00000000000000006704044375578207 -0.00000000000000008083718419656284
vn -0.0000000011142898468474588 0.0011304862254659838 -0.0000000005755280622348981
vn 0.0000000005150901457874861 0.0009521444255490617 -0.0000000006588740631979523
vn 0.000000000000000005669359950626056 0.000000000000000033285006695304986 -0.00000000000000000725192344952758
vn 0.0004588678789660897 -0.000007591823589442178 0.0006203588332516609
vn 0.00008318947804028689 -0.000000053194298721483225 0.0001320079530544282
vn 0.00010684859527908991 0.0000015458858229060613 0.00021223420636133365
vn 0.00013845582491103597 0.0000010310643077163904 0.0004233071032496222
vn 0.00018793633735763918 -0.000012351692103855273 0.0008092016116168091
vn 0.0000000055496975898343105 -0.0001546226943496305 0.0000680722490837862
vn 0.00004787474057410041 0.000007522245027661047 0.000045461677259158644
vn 0.000348573139821316 0.0000011690149790104587 0.00037572793877108037
vn 0.00043610811782651644 0.000002100728352112338 0.00023705855808973082
vn 0.00019152229227953634 -0.00000008049292438561225 0.00012587485969151385
vn 0.0004211491146008954 -0.00000383915605085498 0.0003134757066902776
vn 0.000000010423093499496765 -0.00003745381508224472 0.000016489294182520257
vn 0.0000000163298068403745 -0.00011410279810775213 0.00005021834911644936
vn 0.0006357111651063009 -0.000004877327796757715 0.00024186223129608043
vn -0.00022484733062812608 -0.0000030694402539643707 0.0005330944019306128
vn -0.000000003442906403440353 -0.00003291257647931078 0.000014507373396809029
vn -0.0000672892719104549 -0.0000038108461062333857 0.000552181043008922
vn -0.00000000000000013137213998012488 -0.0000000000000000012474413032872355 0.00000000000000036516786128426493
vn -0.000009084470001809978 0.0000143357277160009 0.0000953163020422949
vn -0.0000000000000000008508980520640309 0.00000000000000003170613728162297 0.000000000000000008926551633614735
vn -0.0003157770031419264 -0.00021067144259631255 -0.00009950064522948127
vn -0.00035684251555539656 -0.0000974116924922528 -0.00004903225689812567
vn -0.00000000000000027394955060654374 -0.0000000000000004388820586768336 0.000000000000000004323515897457763
vn -0.00019746684414572872 -0.0001602182290962037 -0.0000655849751873234
vn -0.0000015622400256221543 -0.0000027650351540783976 -0.00003679077429235115
vn -0.00005133288706873715 -0.00012831978325459815 -0.00004925719171526281
vn -0.000021344988957054914 -0.000110315687281484 -0.00002661505363903782
vn -0.000000021297547600729962 -0.00005691354163077051 0.000024999886794814524
vn 0.0000000016819872568727468 -0.0000000012286411539535184 -0.0004400843097233339
vn 0.00000000000001167570878104219 -0.000000000000003552744448471747 -0.000000000000007219688969174448
vn 0.00041567377088303083 -0.00013001077344498824 -0.0000581827578979574
vn 0.00033575889084348483 -0.00010216206551415351 -0.000046370760060394415
vn 0.00036271995569659354 -0.000025862180677579598 -0.000016095095921220085
vn 0.0006896517737278023 -0.0000032598555891136325 0.00005368700928058453
vn 0.000000038826428293707083 -0.00010571684527249976 0.000046496790037766446
vn 0.00008688332905495974 -0.0001213266720327821 -0.00005189247886894254
vn 0.0001958916572828427 -0.00020279096244247148 -0.00007723472587839664
vn 0.0005517279716297937 0.000042492861952856935 -0.00003860617672723644
vn 0.00007913731425340163 0.000009787159459478197 -0.000003023585094690383
vn 0.000473285606492795 -0.0000005667404297359353 0.00002441971985707591
vn 0.00290262372704351 0.0000018693930904624264 -0.000003512295510118766
vn -0.0001779637839230905 0.00009767476669302663 -0.00010529767046181416
vn -0.0002767313659973699 0.00025566172530611494 -0.00027450533633379835
vn -0.000000042769768305657064 0.000000030235537625613315 -0.00002923531517169537
vn -0.0000000007073540616423515 -0.00000000293638061264246 -0.0004496105495061414
vn -0.0000000015811431160081434 -0.000000003011863018530871 -0.0003117917798575125
vn -0.000000000000003773833968948008 -0.0000000000000010307785364342967 -0.000000000000006579101412967914
vn -0.00000004665434388740412 0.000000028345796878994037 -0.00007188594270803191
vn -0.000000004354381536631185 0.0000000019040337893887104 -0.00014218340437499165
vn -0.0000000000000031982682294403964 0.00000000000000012987888353103445 -0.0000000000000022638721880799566
vn -0.00030225721708777896 0.0000835387924695282 -0.00009087901507649403
vn 0.00024903637774668057 0.0002309262632370862 -0.0002594826313256828
vn 0.00021843713214207564 0.00009586246947531401 -0.00010049001466520553
vn 0.0000000000000012045734536454585 0.0000000000000011159898189340798 -0.000000000000006134401812534529
vn 0.00000004311699421274671 0.000000029911818924312625 -0.00004986852659308098
vn 0.000000004072308018972577 -0.0000000030599175738698003 -0.0012840617477237616
vn 0.000000006414283292754126 -0.000000007230224131693673 -0.0034897176100020053
vn 0.0000000019503311583483937 -0.00000000169916436312668 -0.0015263940327274435
vn 0.0000000005284932909109473 0.00000002830379337585576 -0.00027243872741292526
vn -0.000007841046760215264 -0.000000028617023416843444 0.000026303551523223747
vn -0.00005792979844643216 0.00000027881020514598364 0.00026198883537276396
vn -0.00000622365962210629 0.000000248945895005424 0.000028154253017830163
vn -0.00012328904841984952 -0.0001550132847181473 -0.0000656766208581984
vn -0.0000000000000021536566447103845 -0.000000000000002111929949903897 -0.0000000000000008792475851320876
vn -0.0000000000000007664767258386274 -0.0000000000000006652071607307977 -0.0000000000000002740515808534981
vn -0.00000000000000021887697322433556 -0.00000000000000027741418005854797 -0.00000000000000021613200538085337
vn -0.00000000000000008680719511263833 -0.00000000000000018720502972807111 -0.000000000000000036422982109879256
vn -0.00008342659042570609 -0.0001471859908535046 -0.00004939765772032919
vn -0.0000000000000007406862666606284 -0.0000000000000013563504703065221 -0.0000000000000004633439628070474
vn 0.0000000029344444648336755 -0.000000001492132952577601 -0.00022482162523729309
vn 0.0003348776026934015 0.00005406679519554971 -0.000058119556380359716
vn 0.00000000000018000661725081635 0.00000000000002015710732009013 -0.00000000000002031616655505733
vn 0.000000000000017357433902679662 -0.0000000000000012377139001210636 -0.000000000000005518568531819479
vn 0.000000007423872702364152 -0.000000004095203957368217 -0.00014471492626123852
vn 0.0001991654547951872 -0.00011081206070232291 -0.000055259441870214606
vn 0.00015652906368926464 -0.00013603979195961447 -0.000058731786563502614
vn 0.000000020785410642731915 -0.000000020716756463280764 -0.000016380483075596786
vn 0.000000000000003882701622445787 -0.0000000000000021608480860577496 -0.0000000000000038620784685565014
vn 0.000000030186693379650784 -0.000000026323909828921257 -0.00004551921620925931
vn 0.000000007373278950740682 -0.000000004583776179213514 -0.00008637544248060421
vn 0.000000000000004297768915346878 -0.0000000000000013077585681634064 -0.0000000000000030796661065497083
vn 0.00000009316473992268602 -0.00028118943963395456 0.00012367929069956316
vn 0.0000000626163867435128 -0.00032032247851799015 0.00014092842703217271
vn 0.0000000909522483991728 -0.0016525499671154083 0.0007271990693134083
vn 0.00000011882067240415336 -0.002524354759380308 0.0011108359351581607
vn -0.00000023322290761411575 -0.002374420952075512 0.001044714991432568
vn -0.00000004227463712945523 -0.00032699348336697235 0.0001438528194208539
vn -0.00000004099269523757536 -0.00016223821080885067 0.00007130470104144319
vn 0.000003880987008514899 -0.00011377988066230138 -0.00002508793772496743
vn 0.00003794225316171297 -0.00010507934745325488 -0.00003414591489166541
vn 0.00006780990800281386 -0.00018465486263891123 -0.000058834057922452384
vn -0.00012814770653907283 0.00012435287780463174 -0.00013849373337174512
vn -0.000000000000003059726950971342 0.0000000000000031846981920092415 -0.00000000000000356809240899085
vn -0.00000000000000044078754552944923 0.00000000000000042767666685465186 -0.0000000000000006262851366204691
vn -0.000000022706985342591675 -0.000000010743937449031225 -0.00004680121680826642
vn -0.0000000000000008617393086468194 -0.0000000000000005745977649988758 -0.000000000000003605365246801828
vn -0.0000000000000009732613895719204 -0.0000000000000002659402664083737 -0.000000000000002781092887170837
vn -0.000000000000003898825284315258 0.00000000000000015831986061064315 -0.0000000000000020984153585949345
vn -0.00047246089721331884 0.000019182385257317286 -0.00001834828416443037
vn -0.0006960120591617694 0.00004737971997034824 -0.00004147505177519877
vn -0.0000000000000635839037671504 0.00000000000000987692932541244 -0.0000000000000102103316578471
vn 0.000000002523468128895949 0.000000018424829961405668 -0.00007778213256409172
vn 0.000003498508607038024 0.0001120304132297556 -0.00014505045935645362
vn 0.000026872669790148115 0.0001687208080820552 -0.00018872726417182344
vn 0.00006316843944654881 0.00014839526667867226 -0.00019069948050777684
vn 0.0000000000000006709355917298565 0.0000000000000015763062360585228 -0.0000000000000029258972386634868
f 47//1 2//1 44//1
f 42//2 47//2 44//2
f 37//3 14//3 9//3
f 33//4 27//4 11//4
f 63//5 33//5 57//5
f 69//6 73//6 79//6
f 43//7 40//7 65//7
f 43//8 28//8 23//8
f 43//9 23//9 25//9
f 26//10 25//10 42//10
f 26//11 42//11 44//11
f 15//12 7//12 8//12
f 15//13 42//13 25//13
f 32//14 12//14 15//14
f 32//15 15//15 9//15
f 5//16 8//16 7//16
f 5//17 50//17 8//17
f 34//18 11//18 27//18
f 34//19 27//19 33//19
f 13//20 11//20 34//20
f 13//21 34//21 9//21
f 13//22 9//22 15//22
f 13//23 15//23 25//23
f 13//24 25//24 23//24
f 13//25 23//25 11//25
f 22//26 11//26 23//26
f 22//27 23//27 28//27
f 30//28 33//28 11//28
f 30//29 11//29 22//29
f 30//30 22//30 28//30
f 30//31 28//31 57//31
f 30//32 57//32 33//32
f 64//33 63//33 57//33
f 64//34 57//34 28//34
f 64//35 28//35 43//35
f 64//36 43//36 65//36
f 64//37 65//37 40//37
f 64//38 40//38 63//38
f 54//39 62//39 55//39
f 58//40 25//40 26//40
f 20//41 15//41 8//41
f 20//42 8//42 4//42
f 20//43 4//43 53//43
f 49//44 21//44 20//44
f 48//45 21//45 49//45
f 48//46 42//46 15//46
f 48//47 15//47 20//47
f 48//48 20//48 21//48
f 16//49 35//49 15//49
f 16//50 15//50 12//50
f 16//51 12//51 32//51
f 16//52 32//52 9//52
f 16//53 9//53 14//53
f 16//54 14//54 33//54
f 18//55 7//55 15//55
f 18//56 15//56 35//56
f 19//57 5//57 7//57
f 19//58 7//58 18//58
f 19//59 18//59 35//59
f 19//60 35//60 16//60
f 19//61 16//61 50//61
f 19//62 50//62 5//62
f 6//63 34//63 33//63
f 6//64 33//64 14//64
f 6//65 14//65 37//65
f 3//66 34//66 6//66
f 3//67 37//67 9//67
f 3//68 9//68 34//68
f 72//69 76//69 63//69
f 72//70 63//70 40//70
f 77//71 74//71 63//71
f 77//72 63//72 76//72
f 78//73 76//73 79//73
f 70//74 78//74 79//74
f 70//75 79//75 73//75
f 70//76 73//76 74//76
f 68//77 69//77 53//77
f 61//78 55//78 62//78
f 1//79 17//79 61//79
f 1//80 61//80 62//80
f 1//81 62//81 54//81
f 1//82 8//82 50//82
f 75//83 17//83 1//83
f 75//84 68//84 67//84
f 75//85 67//85 17//85
f 10//86 54//86 4//86
f 10//87 4//87 8//87
f 10//88 8//88 1//88
f 10//89 1//89 54//89
f 59//90 58//90 26//90
f 59//91 26//91 44//91
f 59//92 2//92 58//92
f 38//93 69//93 79//93
f 38//94 79//94 76//94
f 38//95 72//95 40//95
f 31//96 58//96 2//96
f 31//97 2//97 38//97
f 31//98 38//98 40//98
f 31//99 25//99 58//99
f 52//100 49//100 20//100
f 52//101 20//101 53//101
f 24//102 49//102 52//102
f 24//103 52//103 53//103
f 24//104 53//104 69//104
f 24//105 69//105 38//105
f 24//106 38//106 2//106
f 24//107 2//107 47//107
f 36//108 3//108 6//108
f 36//109 6//109 37//109
f 36//110 37//110 3//110
f 71//111 78//111 74//111
f 71//112 74//112 77//112
f 71//113 77//113 76//113
f 71//114 76//114 78//114
f 29//115 70//115 74//115
f 29//116 74//116 78//116
f 29//117 78//117 70//117
f 41//118 68//118 53//118
f 41//119 53//119 4//119
f 41//120 4//120 54//120
f 41//121 54//121 55//121
f 41//122 55//122 68//122
f 66//123 61//123 17//123
f 66//124 17//124 67//124
f 66//125 67//125 68//125
f 51//126 61//126 66//126
f 51//127 66//127 68//127
f 51//128 68//128 55//128
f 51//129 55//129 61//129
f 46//130 75//130 1//130
f 46//131 1//131 50//131
f 46//132 50//132 16//132
f 46//133 16//133 33//133
f 46//134 33//134 63//134
f 46//135 63//135 74//135
f 46//136 74//136 73//136
f 46//137 73//137 69//137
f 46//138 69//138 68//138
f 46//139 68//139 75//139
f 56//140 59//140 44//140
f 56//141 44//141 2//141
f 56//142 2//142 59//142
f 39//143 38//143 76//143
f 39//144 76//144 72//144
f 39//145 72//145 38//145
f 60//146 31//146 40//146
f 60//147 40//147 43//147
f 60//148 43//148 25//148
f 60//149 25//149 31//149
f 45//150 24//150 47//150
f 45//151 47//151 42//151
f 45//152 42//152 48//152
f 45//153 48//153 49//153
f 45//154 49//154 24//154
